<?xml version="1.0" standalone="no"?>
<!DOCTYPE svg PUBLIC "-//W3C//DTD SVG 1.1//EN" "http://www.w3.org/Graphics/SVG/1.1/DTD/svg11.dtd">
<svg xmlns="http://www.w3.org/2000/svg">
<defs >
<font id="Sofia" horiz-adv-x="430" ><font-face
    font-family="Sofia"
    units-per-em="1000"
    panose-1="0 0 0 0 0 0 0 0 0 0"
    ascent="1138"
    descent="-438"
    alphabetic="0" />
<glyph unicode=" " glyph-name="space" horiz-adv-x="354" />
<glyph unicode="!" glyph-name="exclam" horiz-adv-x="205" d="M47 694T67 710T110 726T159 707L140 236Q140 219 127 210T104 200Q84 200 68 209L48 667Q47 694 67 710ZM43 31T43 56T60 98T102 116T144 99T162 56T145 14T102 -3T60 14Z" />
<glyph unicode="&quot;" glyph-name="quotedbl" horiz-adv-x="350" d="M96 467Q49 467 49 528L48 710Q53 724 81 724Q128 724 128 663L129 481Q124 467 96 467ZM257 467Q210 467 210 528L209 710Q214 724 242 724Q289 724 289 663L290 481Q285 467 257 467Z" />
<glyph unicode="#" glyph-name="numbersign" horiz-adv-x="833" d="M579 197T579 184T570 162H390L356 23Q348 -3 324 -3Q308 -3 299 12L335 162H192L158 23Q150 -3 126 -3Q110 -3 101 12L137 162H71Q35 162 35 191Q35 204 44 213H150L197 406H71Q35 406 35 435Q35
448 44 457H209L243 594Q250 621 276 621Q289 621 300 604L264 457L407 458L441 594Q448 621 474 621Q487 621 498 604L462 458H543Q560 458 569 450T579 428T570 406H449L402 213L543 214Q560 214 569 206ZM251 406L204 213H348L395 406H251Z" />
<glyph unicode="$" glyph-name="dollar" horiz-adv-x="593" d="M460 153Q460 201 438 235T380 288T301 322T215 352T137 389T79 449T56 541Q56 624 111 675T258 737V903Q261 917 289 917Q334 917 334 856V738Q426 730 481 684T536 584Q536 544 521 525T484 505Q445
505 434 520L431 525Q441 538 441 575Q441 632 393 664T282 697T181 663T144 580T166 499T225 448T304 416T391 386T471 346T529 279T552 175Q552 79 490 24T334 -43V-195Q331 -209 303 -209Q258 -209 258 -148V-44Q147 -36 75 20T2 159Q2 200 18 223T56 247Q95
247 106 234L109 229Q100 204 100 168Q100 100 155 49T301 -2Q366 -2 413 43T460 153Z" />
<glyph unicode="%" glyph-name="percent" horiz-adv-x="937" d="M641 809Q652 809 659 803T670 783L318 43Q303 11 287 -1T254 -14Q226 -14 222 4L220 10L576 760Q599 809 641 809ZM123 437T78 487T33 621T78 756T197 808T315 756T361 621T316 488T197 437ZM156
492T197 492T260 528T282 620T258 712T197 748T136 713T112 621T134 529ZM600 -11T555 39T510 173T555 308T674 360T792 308T838 173T793 40T674 -11ZM633 44T674 44T737 80T759 172T735 264T674 300T613 265T589 173T611 81Z" />
<glyph unicode="&amp;" glyph-name="ampersand" horiz-adv-x="827" d="M514 96Q570 68 607 68T671 75Q683 72 693 62T703 34T681 -1T605 -18T472 25Q399 -53 276 -53T77 2T1 146Q1 234 51 284Q94 325 161 358Q104 466 104 555Q104 620 140 668Q182 725 277 725Q418
725 420 567Q420 477 373 426Q332 381 268 342Q336 223 443 141Q448 170 448 209T439 274Q451 280 468 280T498 273T520 244T530 180T514 96ZM142 266T114 229T85 135T131 35T263 -9Q374 -9 416 61Q286 154 195 299Q142 266 114 229ZM352 620T334 651T277 682T219
647T199 547T239 397Q293 427 322 467T352 563Z" />
<glyph unicode="&apos;" glyph-name="quotesingle" horiz-adv-x="165" d="M94 467Q47 467 47 528L46 710Q51 724 79 724Q126 724 126 663L127 481Q122 467 94 467Z" />
<glyph unicode="(" glyph-name="parenleft" horiz-adv-x="383" d="M323 789T334 779T345 756T339 742Q268 742 212 671T129 498T101 291T128 87T212 -82T339 -152Q345 -153 345 -165T334 -188T305 -199Q256 -199 204 -163T108 -64T36 92T8 291T36 492T108 651T204
752T305 789Q323 789 334 779Z" />
<glyph unicode=")" glyph-name="parenright" horiz-adv-x="356" d="M30 -199T19 -189T8 -166T14 -152Q85 -152 141 -83T224 86T252 291T225 497T141 670T14 742Q8 743 8 755T19 778T48 789Q97 789 149 752T245 652T317 492T345 291T317 92T245 -64T149 -162T48
-199Q30 -199 19 -189Z" />
<glyph unicode="*" glyph-name="asterisk" horiz-adv-x="577" d="M153 516Q136 491 115 491T82 503T68 528L66 541L176 652L53 660Q27 661 16 677T4 709T10 734T30 748L182 705L126 815Q120 828 120 840T126 862Q139 884 154 884Q180 884 190 872L233 721L297
823Q315 851 348 851Q363 851 373 840T388 806L274 691L379 686Q440 683 440 639Q440 627 435 617T419 598L266 637L319 542Q327 528 327 516T322 492Q311 468 286 468L261 472L216 620L153 516Z" />
<glyph unicode="+" glyph-name="plus" horiz-adv-x="486" d="M26 263Q26 308 87 308H182V452Q185 466 213 466Q258 466 258 405V308L401 309Q415 306 415 278Q415 233 354 233L258 232L259 91Q256 77 228 77Q183 77 183 138L182 232H40Q26 235 26 263Z" />
<glyph unicode="," glyph-name="comma" horiz-adv-x="181" d="M75 -113T66 -108T56 -93T63 -78Q91 -78 107 -60T123 -19T120 16Q107 -2 85 -2T49 12T35 45T48 79T82 93H83Q119 93 141 68T163 -4T141 -82T88 -113Q75 -113 66 -108Z" />
<glyph unicode="-" glyph-name="hyphen" horiz-adv-x="440" d="M26 263Q26 308 87 308L401 309Q415 306 415 278Q415 233 354 233L40 232Q26 235 26 263Z" />
<glyph unicode="." glyph-name="period" horiz-adv-x="120" d="M40 -2T27 12T13 45T26 79T60 93T94 79T108 45T94 12T60 -2Z" />
<glyph unicode="/" glyph-name="slash" horiz-adv-x="377" d="M417 809Q428 809 435 803T446 783L94 43Q79 11 63 -1T30 -14Q2 -14 -2 4L-4 10L352 760Q375 809 417 809Z" />
<glyph unicode="0" glyph-name="zero" horiz-adv-x="865" d="M276 -13T189 86T102 349T190 615T420 718T650 616T738 359Q738 187 651 87T420 -13ZM312 27T420 27T587 117T646 349T583 579T419 668T257 579T194 350T253 118Z" />
<glyph unicode="1" glyph-name="one" horiz-adv-x="476" d="M12 25Q12 40 21 47H196V643L47 549Q25 534 12 534Q-12 534 -12 564L-11 573L205 712Q235 732 259 732T290 700V48H424Q441 48 450 40T460 17T451 -4H48Q12 -4 12 25Z" />
<glyph unicode="2" glyph-name="two" horiz-adv-x="833" d="M193 511Q193 492 199 474Q193 462 172 462T136 477T121 517Q121 605 187 664T369 723T558 667T633 485Q633 394 551 270T382 80Q458 33 513 33T602 49T648 90Q676 138 674 176L673 193Q679 204 699
204Q729 204 729 132T665 13T520 -33T336 43Q268 -1 183 -1Q136 -1 106 20T76 85T106 151T196 175Q232 175 283 144Q299 135 332 113Q419 197 480 300T541 494T490 629T369 674T246 630T193 511ZM222 130T193 130T148 118T131 87Q131 45 184 45T290 78Q222 130
193 130Z" />
<glyph unicode="3" glyph-name="three" horiz-adv-x="595" d="M372 361Q551 312 551 157Q551 48 469 -13T272 -75T83 -30T8 69Q8 101 24 101L44 95Q44 43 111 9T262 -25T403 22T459 160T395 296T231 342Q208 342 208 362Q208 373 215 378T231 384Q330 384 381
420T432 522T390 625T275 662T153 633T104 544Q104 525 110 507Q104 495 83 495T47 510T32 550Q32 617 96 664T276 711T458 662T524 518Q524 482 509 453T475 408T432 380Q396 364 372 361Z" />
<glyph unicode="4" glyph-name="four" horiz-adv-x="833" d="M383 29Q383 42 392 51H499V163Q471 170 387 203T252 236Q239 236 221 234Q177 179 89 168Q83 177 83 189Q83 240 167 264Q211 316 229 429T248 637Q248 672 279 672T311 636Q311 398 247 276H260Q331
276 428 242Q470 228 496 222V616Q496 664 514 689T553 714Q572 714 580 709T589 704V214Q661 219 661 286Q661 308 654 317Q660 332 685 332Q721 332 721 275T686 187T590 154V52H661Q678 52 687 44T697 22T688 0H419Q383 0 383 29Z" />
<glyph unicode="5" glyph-name="five" horiz-adv-x="631" d="M106 350L112 536Q112 596 92 644Q54 657 35 689Q28 701 28 715T34 735Q35 735 43 733Q97 725 121 702Q192 681 270 681T392 689T455 707T487 725T510 734Q516 725 516 713Q516 670 452 638T279 606Q219
606 164 619Q174 569 174 533T172 439T169 379Q221 407 270 407T361 394T439 355T498 282T521 174Q521 65 439 4T231 -58Q144 -58 81 -13T18 86Q18 118 34 118L54 112Q54 59 107 26T239 -8T373 39T429 174T383 309T276 355Q212 355 146 329Q123 320 119 320Q106
320 106 350Z" />
<glyph unicode="6" glyph-name="six" horiz-adv-x="640" d="M558 722L531 723Q456 723 373 674T227 541T151 367Q215 444 330 444Q383 444 425 429T494 391T537 335Q567 279 567 205Q567 103 499 40T317 -24T132 52T60 281Q60 408 129 520T308 698T536 763Q551
763 559 756T568 740T558 722ZM145 128T195 72T318 16T438 69T485 206T446 343T333 395Q239 395 192 343T145 209Z" />
<glyph unicode="7" glyph-name="seven" horiz-adv-x="833" d="M106 561Q106 546 112 532Q102 516 77 516T36 535T20 590Q20 646 65 682T183 719T324 695T455 641T556 604Q655 682 740 682Q746 673 746 661Q746 616 686 580T573 544Q485 439 434 285T382 -20Q382
-71 356 -84Q342 -90 321 -90Q254 -90 254 -19Q254 51 314 227Q343 310 392 401T497 554Q469 563 412 589T304 634T207 653T134 627T106 561Z" />
<glyph unicode="8" glyph-name="eight" horiz-adv-x="628" d="M420 -23T294 -23T86 38T4 209Q4 255 19 293T51 351T94 387Q124 405 149 413Q124 419 93 439Q31 482 31 573T102 713T295 763T487 714T557 570Q557 534 545 505T518 459T483 432Q459 417 439 413Q464
405 491 388T536 351T569 293T584 209Q584 100 502 39ZM96 117T153 67T295 17T436 66T492 206T436 346T294 395T153 346T96 207ZM465 570Q465 645 418 684T295 723T171 685T123 570Q123 512 166 474T293 435T421 473T465 570Z" />
<glyph unicode="9" glyph-name="nine" horiz-adv-x="633" d="M70 -27L97 -28Q172 -28 255 21T401 154T477 328Q413 251 298 251Q245 251 203 266T134 304T91 360Q61 416 61 490Q61 592 129 655T311 719T496 643T568 414Q568 287 499 175T320 -3T92 -68Q77 -68
69 -61T60 -45T70 -27ZM483 567T433 623T310 679T190 626T143 489T182 352T295 300Q389 300 436 352T483 486Z" />
<glyph unicode=":" glyph-name="colon" horiz-adv-x="157" d="M40 -2T27 12T13 45T26 79T60 93T94 79T108 45T94 12T60 -2ZM13 384T13 404T26 438T60 452T94 438T108 404T94 371T60 357T27 370Z" />
<glyph unicode=";" glyph-name="semicolon" horiz-adv-x="181" d="M53 -113T44 -108T34 -93T41 -78Q69 -78 85 -60T101 -19T98 16Q85 -2 63 -2T27 12T13 45T27 79T64 93Q98 91 119 66T141 -5T119 -82T66 -113Q53 -113 44 -108ZM13 384T13 404T26 438T60 452T94
438T108 404T94 371T60 357T27 370Z" />
<glyph unicode="&lt;" glyph-name="less" horiz-adv-x="411" d="M316 176Q348 150 348 136T339 109T310 87L72 284Q38 312 38 332T72 382L310 583Q325 576 336 562T347 534T316 494L127 333L316 176Z" />
<glyph unicode="=" glyph-name="equal" horiz-adv-x="670" d="M111 257Q111 302 172 302H554Q568 299 568 271Q568 226 507 226H125Q111 229 111 257ZM111 413Q111 458 172 458H554Q568 455 568 427Q568 382 507 382H125Q111 385 111 413Z" />
<glyph unicode="&gt;" glyph-name="greater" horiz-adv-x="390" d="M75 87Q37 106 37 136Q37 150 69 176L258 333L69 494Q38 520 38 534T47 560T75 583L313 382Q347 353 347 333T313 284L75 87Z" />
<glyph unicode="?" glyph-name="question" horiz-adv-x="833" d="M188 556Q188 537 194 519Q188 507 167 507T131 522T116 562Q116 650 182 709T355 768T529 717T598 560Q598 470 549 416Q519 382 470 345T399 285Q350 234 350 154Q350 137 341 128T319 118T292
127V172Q292 254 334 306Q353 328 376 347T422 385T464 426Q506 477 506 558T461 679T355 719T241 675T188 556ZM281 18T281 35T292 63T320 75T348 64T360 36T349 8T321 -4T293 7Z" />
<glyph unicode="@" glyph-name="at" horiz-adv-x="735" d="M413 362Q428 383 453 383T493 369V202Q493 89 560 89Q597 89 619 131T642 228T626 330T580 416T497 478T378 502Q240 502 168 419T96 213T184 18T451 -56Q457 -58 457 -71T404 -85Q249 -85 153 -4T57
215Q57 406 197 493Q271 539 378 539Q454 539 513 513T608 444Q681 355 681 234Q681 159 646 104T548 48Q457 48 421 121Q394 65 321 65Q188 65 188 224T338 384Q387 384 413 362ZM275 160T287 132T326 104T375 124T401 197V278Q398 318 383 331T344 345Q275 345
275 226Q275 160 287 132Z" />
<glyph unicode="A" glyph-name="A" horiz-adv-x="870" d="M821 212T821 199T812 177H670L727 -13Q729 -20 729 -31T715 -58T686 -74Q658 -74 642 -60L571 177H316L266 41Q240 -28 191 -78T64 -128Q5 -128 -28 -97T-62 -7T-34 99T42 174Q136 228 252 228L398 640Q408
669 419 683Q388 787 388 797T402 821T432 835Q461 835 477 821L654 228L785 229Q802 229 811 221ZM64 -86Q139 -86 194 65L233 176Q123 176 59 124T-6 -13Q-6 -48 13 -67T64 -86ZM457 606L335 228H555L457 606Z" />
<glyph unicode="B" glyph-name="B" horiz-adv-x="761" d="M229 746L259 747Q408 747 499 696T590 551Q590 481 555 439Q525 402 501 390L491 384Q508 381 537 365T586 329T621 272T637 190Q637 71 537 9T248 -53Q112 -53 28 13T-57 163Q-57 177 -49 186T-29 195T-11
189Q-11 127 30 81T139 13V667Q95 647 68 620T41 567T47 524Q41 512 20 512T-16 527T-31 567Q-31 614 16 660T139 729V767Q139 797 154 812T191 828T229 814V746ZM248 -3Q397 -3 471 44T545 190Q545 360 317 360Q307 360 300 369T293 393Q293 412 317 412Q429 412
467 458Q498 495 498 551Q498 622 433 659T264 698Q245 698 233 695V-3H248Z" />
<glyph unicode="C" glyph-name="C" horiz-adv-x="659" d="M660 228Q665 234 677 234T698 225T706 191T690 125T641 42T553 -27T426 -54Q264 -54 166 50T68 348T160 639T403 737Q500 737 555 687T610 576Q610 551 595 536T565 521Q537 521 527 533Q533 548 533
570Q533 624 499 656T398 688Q299 688 230 594T160 343T237 92T422 -4T595 61T660 228Z" />
<glyph unicode="D" glyph-name="D" horiz-adv-x="711" d="M-37 167T-29 176T-9 185T9 179Q9 124 44 84T139 24V668Q41 643 41 586Q41 567 47 549Q41 537 20 537T-16 552T-31 592Q-31 637 14 671T139 721V767Q139 797 154 812T191 828T229 814V731Q239 732 259
732Q425 732 530 638Q582 590 611 511T641 326Q641 144 534 51T248 -43Q113 -43 38 16T-37 153Q-37 167 -29 176ZM264 683L233 682V7H248Q385 7 467 83T549 328T472 590T264 683Z" />
<glyph unicode="E" glyph-name="E" horiz-adv-x="529" d="M547 268Q566 268 566 235Q566 124 492 38Q456 -4 397 -30T266 -56Q136 -56 49 5T-39 176Q-39 225 -24 263T11 322T58 357Q102 380 141 380Q87 388 48 428Q30 445 17 479T3 557Q3 651 69 700T244 750T409
706T465 599Q465 574 450 559T420 544Q395 544 387 556Q393 571 393 593Q393 647 352 674T245 701T137 665T95 557Q95 408 296 408Q307 408 316 402T326 382Q326 356 296 356Q189 356 121 312T53 177T111 40T272 -6T452 68T530 261Q532 268 547 268Z" />
<glyph unicode="F" glyph-name="F" horiz-adv-x="617" d="M163 361Q163 374 172 383H246V648H165Q129 648 129 677Q129 690 138 699L667 700Q684 700 693 692T703 670T694 648H336V384H557Q574 384 583 376T593 354T584 332H336V121Q336 -8 309 -68T210 -128Q172
-128 151 -96T130 -5Q130 106 246 217V332H199Q163 332 163 361ZM209 -89Q230 -89 237 -48T246 113V171Q173 82 173 -3T209 -89Z" />
<glyph unicode="G" glyph-name="G" horiz-adv-x="590" d="M445 232T460 247T497 263T535 249V-147Q535 -272 497 -334T376 -396Q326 -396 298 -364T270 -273Q270 -178 321 -119T445 -46V-18Q381 -43 298 -43Q147 -43 56 50T-35 328T57 610T300 708Q408 708 470
658T532 547Q532 522 517 507T487 492Q459 492 449 504Q455 519 455 541Q455 595 414 627T295 659Q196 659 127 565T57 323T127 92T298 7Q380 7 445 37V202Q445 232 460 247ZM316 -314T332 -334T380 -354T428 -310T445 -147V-98Q388 -111 352 -157T316 -276Q316
-314 332 -334Z" />
<glyph unicode="H" glyph-name="H" horiz-adv-x="875" d="M616 758T631 773T668 789T706 775V229H795Q812 229 821 221T831 199T822 177H706V-13Q706 -43 691 -58T654 -74T616 -60V177H323V121Q323 -4 285 -66T164 -128Q114 -128 86 -96T58 -5Q58 89 109 148T233
221V640Q233 670 248 685T285 701T323 687V228H616V728Q616 758 631 773ZM104 -46T120 -66T167 -86T215 -43T233 113V169Q176 156 140 110T104 -8Q104 -46 120 -66Z" />
<glyph unicode="I" glyph-name="I" horiz-adv-x="454" d="M367 35T367 22T358 0H89Q53 0 53 29Q53 42 62 51L170 52V648H89Q53 648 53 677Q53 689 62 700H331Q348 700 357 692T367 670T358 648H260V52H331Q348 52 357 44Z" />
<glyph unicode="J" glyph-name="J" horiz-adv-x="490" d="M365 684T365 671T356 649H258V118Q258 -1 216 -64T99 -128Q42 -128 11 -89T-20 19T-1 147T52 249Q107 321 168 367V649H87Q51 649 51 678Q51 691 60 700L329 701Q346 701 355 693ZM98 -89Q168 -89 168
121V323Q23 189 23 21Q23 -34 45 -61T98 -89Z" />
<glyph unicode="K" glyph-name="K" horiz-adv-x="756" d="M859 -157Q884 -157 900 -147Q915 -148 915 -164Q915 -198 845 -198T720 -172T631 -104T570 -12T518 89T468 181T400 249T306 275Q278 275 278 303Q278 312 286 319T302 327Q365 327 416 377T493 502T519
654L513 695Q523 710 548 710T592 692T611 634Q611 509 542 413T397 296Q448 291 487 264T552 196T600 108T645 14T695 -71T763 -133T859 -157ZM137 721T152 736T188 752T229 738V171Q229 66 190 4T71 -58T-49 -22T-89 75Q-89 152 -39 152Q-27 152 -18 146T-3 129Q-11
108 -11 67T10 5T65 -17Q137 -17 137 111V691Q137 721 152 736Z" />
<glyph unicode="L" glyph-name="L" horiz-adv-x="500" d="M-98 556T-101 561T-105 574T-99 587Q2 587 12 588Q17 697 55 751T170 805Q219 805 247 776T276 702Q276 638 233 603T101 555V242Q101 174 86 120Q90 116 103 105T122 89T140 73T159 58T179 45T201 32T223
23T249 14Q280 8 306 8Q405 8 455 54T506 189Q507 195 516 195T531 192Q546 181 546 143Q546 60 475 6T305 -49Q230 -49 174 -19T64 63Q19 -23 -66 -23Q-122 -23 -151 6T-181 84T-150 163T-73 194T9 176Q11 218 11 246V547Q-9 546 -41 546T-85 551ZM230 705Q230
729 213 746T167 763T121 727T101 597Q230 621 230 705ZM-136 85Q-136 19 -66 19Q-10 19 4 120Q-36 153 -68 153T-118 135T-136 85Z" />
<glyph unicode="M" glyph-name="M" horiz-adv-x="1324" d="M107 525Q107 507 115 489Q106 477 85 477T50 492T35 541Q35 620 83 669T211 719Q343 719 368 575Q390 642 440 682T557 722Q705 721 748 560Q768 633 819 677T942 722Q1046 721 1097 644T1149 436V153Q1149
95 1172 60T1234 25Q1328 25 1328 213Q1329 219 1338 219T1353 216Q1368 205 1368 167Q1368 83 1328 31T1222 -21Q1126 -21 1090 46Q1058 107 1058 213V436Q1058 672 942 672Q856 672 810 596T763 394V46Q763 16 748 1T711 -15T673 -1V436Q673 672 557 672Q465
672 421 584T377 346V218Q377 94 338 22T219 -51T99 -15T59 82Q59 159 109 159Q121 159 130 154T145 136Q137 115 137 74T158 11T213 -10Q284 -10 284 158V545Q284 603 261 638T197 673T132 641T107 525Z" />
<glyph unicode="N" glyph-name="N" horiz-adv-x="942" d="M107 525Q107 507 115 489Q106 477 85 477T50 492T35 541Q35 620 83 669T211 719Q343 719 368 575Q390 642 440 682T557 722Q661 721 713 644T765 436V153Q765 95 788 60T850 25Q944 25 944 213Q945 219
954 219T969 216Q984 205 984 167Q984 83 944 31T838 -21Q746 -21 710 40T673 213V436Q673 672 557 672Q512 672 479 650T426 594T396 515Q377 441 377 346V218Q377 94 338 22T219 -51T99 -15T59 82Q59 159 109 159Q121 159 130 154T145 136Q137 115 137 74T158
11T213 -10Q284 -10 284 158V545Q284 603 261 638T197 673T132 641T107 525Z" />
<glyph unicode="O" glyph-name="O" horiz-adv-x="813" d="M369 657T380 647T391 624T385 610Q285 610 230 535T175 322T235 88T402 -8T572 93T636 347T562 602T367 704T163 636T74 472Q70 464 55 464Q29 466 29 498T42 563T84 631T152 692T249 737T374 754Q535
754 631 639T728 346T640 61T403 -48T169 55T83 333Q83 415 109 480T178 582Q263 657 351 657Q369 657 380 647Z" />
<glyph unicode="P" glyph-name="P" horiz-adv-x="653" d="M251 726L281 727Q452 726 547 662T642 480T566 296T365 229Q308 229 255 250V102Q255 -15 226 -71T127 -128Q89 -128 68 -96T47 -5Q47 104 161 215V647Q117 627 90 600T63 547T69 504Q63 492 42 492T6
507T-9 547Q-9 594 38 640T161 709V747Q161 777 176 792T213 808T251 794V726ZM452 281T499 331T546 476T478 624T282 678Q266 678 254 675V303Q305 281 357 281Q452 281 499 331ZM126 -89Q147 -89 154 -40T161 168Q90 81 90 -4T126 -89Z" />
<glyph unicode="Q" glyph-name="Q" horiz-adv-x="775" d="M309 742T320 732T331 709T325 695Q253 695 198 643T115 513T87 348Q87 203 141 109T290 8Q227 82 192 182T157 380Q157 511 219 589T383 668T554 580T624 354T565 115T403 -19Q480 -68 572 -68T719 4T775
194Q780 200 792 200T813 191T821 156T814 92T787 16T740 -52T666 -99T565 -118Q434 -118 330 -32Q317 -33 304 -33Q169 -33 82 66T-6 348Q-6 436 22 512T94 637T190 714T291 742Q309 742 320 732ZM441 43T486 136T532 355T494 549T384 617T264 553T216 388T255
185T362 15Q441 43 486 136Z" />
<glyph unicode="R" glyph-name="R" horiz-adv-x="677" d="M21 536Q21 517 27 499Q21 487 0 487T-36 502T-51 542Q-51 599 -3 647T116 721T259 747Q595 747 595 506Q595 443 557 394T469 321T370 298Q426 298 469 273T540 208T591 120T638 22T688 -67T757 -132T855
-157Q880 -157 896 -147Q911 -148 911 -164Q911 -198 841 -198T716 -172T627 -104T566 -12T514 89T464 181T396 249T302 275Q276 275 276 303Q276 315 284 321T302 327Q395 327 449 381T503 506Q503 604 437 651T273 698T98 652T21 536ZM137 595T152 610T188 626T229
612V171Q229 66 190 4T71 -58T-49 -22T-89 75Q-89 152 -39 152Q-27 152 -18 146T-3 129Q-11 108 -11 67T10 5T65 -17Q137 -17 137 111V565Q137 595 152 610Z" />
<glyph unicode="S" glyph-name="S" horiz-adv-x="593" d="M460 153Q460 201 438 235T380 288T301 322T215 352T137 389T79 449T56 541Q56 634 124 687T300 740T472 691T536 584Q536 544 521 525T484 505Q445 505 434 520L431 525Q441 538 441 575Q441 632 393
664T282 697T181 663T144 580T166 499T225 448T304 416T391 386T471 346T529 279T552 175Q552 68 476 11T286 -46T87 12T2 159Q2 200 18 223T56 247Q95 247 106 234L109 229Q100 204 100 168Q100 100 155 49T301 -2Q366 -2 413 43T460 153Z" />
<glyph unicode="T" glyph-name="T" horiz-adv-x="625" d="M719 880Q719 895 748 895T809 863T840 788Q840 634 611 634Q519 634 441 650V171Q441 66 402 4T283 -58T163 -22T123 75Q123 152 173 152Q185 152 194 146T209 129Q201 108 201 67T222 5T277 -17Q346
-17 349 111V672Q283 691 221 719Q156 641 24 641Q-30 641 -64 664T-98 736Q-98 832 22 832Q108 832 273 768Q334 745 426 725T615 705T746 726T781 788Q781 813 768 831T740 856L727 862Q719 868 719 880ZM23 687Q130 687 172 740Q65 787 28 787T-26 774T-43 739Q-43
687 23 687Z" />
<glyph unicode="U" glyph-name="U" horiz-adv-x="753" d="M486 683T501 698T537 714T579 700V157Q579 99 602 64T664 29Q758 29 758 217Q759 223 768 223T783 220Q798 209 798 171Q798 87 758 35T652 -17Q525 -17 497 115Q476 45 426 3T306 -39Q203 -38 152 38T101
243V560Q101 618 78 653T14 688T-51 656T-76 540Q-76 522 -68 504Q-77 492 -98 492T-133 507T-148 556Q-148 635 -100 684T28 734Q123 734 158 667Q190 608 190 500V247Q190 11 306 11Q389 11 437 90T486 292V653Q486 683 501 698Z" />
<glyph unicode="V" glyph-name="V" horiz-adv-x="811" d="M820 510Q826 509 826 500T822 485Q812 470 774 470H744Q736 203 660 78T469 -48Q247 -48 247 260V438Q246 566 224 616T161 666Q67 666 67 478Q65 472 56 472T42 476Q27 486 27 524Q27 616 66 664T173
712Q269 712 303 651T337 438V255Q337 112 368 52T471 -8T599 117T655 477Q480 503 480 626Q480 671 508 700T586 729Q662 729 699 676T745 512Q791 510 820 510ZM526 629Q526 545 654 521Q651 615 635 651T590 687T544 670T526 629Z" />
<glyph unicode="W" glyph-name="W" horiz-adv-x="1140" d="M647 690L639 363Q639 202 670 108Q705 -3 809 -3Q881 -3 932 120T985 477Q810 503 810 626Q810 671 838 700T916 729Q993 729 1031 675T1075 512Q1121 510 1150 510Q1156 509 1156 500T1152 485Q1142
470 1104 470H1074Q1065 80 909 -16Q864 -43 809 -43Q651 -43 587 135Q565 70 527 29T451 -28T371 -43Q148 -43 148 265V438Q147 566 125 616T62 666Q-32 666 -32 478Q-34 472 -43 472T-57 476Q-72 486 -72 524Q-72 616 -33 664T74 712Q170 712 204 651T238 438V260Q238
117 269 57T368 -3T472 52Q545 161 545 653Q545 682 562 698T601 714T647 690ZM856 629Q856 545 984 521Q981 615 965 651T920 687T874 670T856 629Z" />
<glyph unicode="X" glyph-name="X" horiz-adv-x="744" d="M1 572Q1 554 9 536Q0 524 -21 524T-56 539T-71 588Q-71 658 -26 702T92 746T222 696T308 576L371 419Q458 592 528 653Q595 711 672 711Q701 711 701 680Q701 664 686 656T647 647T593 629T540 588T490
518Q449 451 400 349L460 201Q486 136 535 83T640 29T727 72T758 217Q759 223 768 223T783 220Q798 209 798 171Q798 87 752 35T630 -17Q540 -17 473 42T366 198L347 245Q283 122 218 54T68 -15Q41 -15 41 6Q41 31 64 31Q145 31 208 118Q264 194 321 314L228 554Q195
638 160 669T85 700T23 672T1 572Z" />
<glyph unicode="Y" glyph-name="Y" horiz-adv-x="670" d="M70 683T85 698T122 714T160 700V348Q160 27 316 27Q412 27 457 119T502 368V653Q502 683 517 698T545 714T566 713T578 709Q588 704 591 700V-155Q591 -404 412 -404Q340 -404 297 -361T253 -242Q253
-200 271 -162T316 -96T380 -44Q430 -9 501 20V64Q432 -13 312 -13T131 82T70 348V653Q70 683 85 698ZM364 -365T411 -365T479 -320T501 -155V-20Q432 -51 372 -100Q338 -129 317 -166T296 -252T330 -333Z" />
<glyph unicode="Z" glyph-name="Z" horiz-adv-x="833" d="M131 593Q131 578 137 564Q127 548 102 548T61 567T45 622Q45 678 90 714T207 751T346 725T471 669T571 634Q646 711 736 711Q742 702 742 690Q742 658 702 629T604 589Q551 533 463 358T322 117Q440 55
496 37T607 19Q691 19 726 48T761 132Q761 160 748 181T720 209L707 216Q699 222 699 239Q699 264 731 264T786 230T810 132Q810 39 749 -6T606 -52Q505 -52 419 -10Q350 24 279 70Q209 5 129 5Q82 5 52 26T22 91T52 157T139 181T276 141Q321 198 400 358T528 584Q494
589 391 637T237 685T159 659T131 593ZM77 93Q77 51 131 51T237 98Q173 136 142 136T94 124T77 93Z" />
<glyph unicode="[" glyph-name="bracketleft" horiz-adv-x="365" d="M289 806T298 798T308 775T299 754H144V-315H289Q298 -321 298 -335T289 -358T262 -367H103Q54 -367 54 -295V736Q54 767 69 786T103 806H272Q289 806 298 798Z" />
<glyph unicode="\" glyph-name="backslash" horiz-adv-x="383" d="M446 10Q442 -14 419 -14T379 -2T348 43L-4 783Q5 809 25 809Q67 809 90 760L446 10Z" />
<glyph unicode="]" glyph-name="bracketright" horiz-adv-x="342" d="M83 -367T74 -359T64 -336T73 -315H218V754H63Q54 760 54 774T63 797T90 806H259Q278 806 293 787T308 736V-295Q308 -367 259 -367H100Q83 -367 74 -359Z" />
<glyph unicode="^" glyph-name="asciicircum" horiz-adv-x="460" d="M40 358Q26 358 16 367T-2 396L184 662Q207 695 232 695T280 662L466 396Q462 381 450 370T424 358Q399 358 377 390L232 596L87 390Q65 358 40 358Z" />
<glyph unicode="_" glyph-name="underscore" horiz-adv-x="611" d="M22 24Q22 70 83 70H577Q591 67 591 39Q591 -7 530 -7H36Q22 -4 22 24Z" />
<glyph unicode="`" glyph-name="grave" horiz-adv-x="228" d="M39 790Q68 790 87 757L196 563Q192 548 180 537T154 525Q126 525 107 557L-4 752Q-1 766 12 778T39 790Z" />
<glyph unicode="a" glyph-name="a" horiz-adv-x="544" d="M297 423Q310 452 338 452T381 438V151Q381 94 399 65T448 36Q542 36 542 231Q543 237 557 237Q575 237 575 184Q575 99 539 48T436 -3Q335 -3 302 86Q283 45 250 21T175 -3Q0 -3 0 226Q0 342 54 397T199
452Q268 452 297 423ZM123 59T141 48T189 36T254 73T290 171V308Q290 355 266 384T211 413T162 407T128 382Q95 346 95 226Q95 147 109 103Z" />
<glyph unicode="b" glyph-name="b" horiz-adv-x="453" d="M1 175V559Q1 689 26 747T122 806Q160 806 181 774T202 683Q202 576 91 465V412Q128 452 185 452Q272 452 328 393T384 226T330 58T191 -3T53 46T1 175ZM289 330T267 371T189 413T112 378T91 258V206Q91
116 114 76T192 36T267 79T289 226ZM123 767Q103 767 97 727T91 557V513Q159 601 159 684T123 767Z" />
<glyph unicode="c" glyph-name="c" horiz-adv-x="405" d="M419 205Q440 205 440 176T428 118T394 61T331 15T239 -3Q127 -3 64 53T0 219T56 390T199 452Q262 452 291 419T320 339Q320 314 305 299T276 284Q250 284 242 296Q248 311 248 339T229 390T183 413Q136
413 116 367T95 223T133 80T241 36T357 78T404 199Q405 205 419 205Z" />
<glyph unicode="d" glyph-name="d" horiz-adv-x="542" d="M0 232Q0 347 54 399T199 452Q257 452 291 429V565Q291 691 316 748T412 806Q450 806 471 774T492 683Q492 576 381 465V151Q381 94 400 65T452 36T513 75T543 201Q543 220 542 231Q543 237 557 237Q575
237 575 184Q575 101 538 49T441 -3Q334 -3 301 91Q282 49 249 24T175 -2Q0 -2 0 232ZM222 37T255 77T289 181V309Q289 358 266 385T211 413T162 408T127 386Q95 353 95 232Q95 110 123 72Q148 37 185 37ZM413 767Q392 767 387 721T381 513Q449 601 449 684T413
767Z" />
<glyph unicode="e" glyph-name="e" horiz-adv-x="407" d="M420 225Q441 225 441 193Q441 119 390 58T233 -3T65 53T1 219T57 390T200 452Q263 452 292 419T321 339Q321 264 259 215T99 165Q108 101 145 69T244 36T355 82T405 219Q406 225 420 225ZM96 211V202Q158
210 203 241T249 333Q249 372 232 392T184 413Q137 413 117 367T96 211Z" />
<glyph unicode="f" glyph-name="f" horiz-adv-x="280" d="M241 403H90V-366Q80 -380 55 -380T15 -365T0 -319V559Q0 686 27 746T123 806Q222 806 222 672Q222 518 118 438H207Q228 438 234 430T241 403ZM179 671Q179 767 131 767Q118 767 111 759T100 715Q92 655
90 459Q179 524 179 671Z" />
<glyph unicode="g" glyph-name="g" horiz-adv-x="477" d="M298 423Q311 452 339 452T382 438V-70Q394 -69 420 -69T446 -91L440 -106Q402 -106 382 -107V-159Q381 -262 335 -320T211 -379Q165 -379 130 -352T94 -265Q94 -189 148 -144T292 -81V66Q250 -3 176 -3Q1
-3 1 226Q1 342 55 397T200 452Q269 452 298 423ZM292 209V280Q292 351 268 382T213 413T163 407T128 382Q96 346 96 226Q96 147 110 103T142 48T192 36T258 77T292 209ZM292 -157V-119Q145 -152 145 -268Q145 -303 164 -321T209 -340Q251 -340 271 -301T292 -157Z"
/>
<glyph unicode="h" glyph-name="h" horiz-adv-x="528" d="M542 237Q560 237 560 184Q560 107 521 52T418 -3T314 41T272 156V298Q272 417 212 417Q159 417 125 363T91 182V11Q81 -3 56 -3T16 12T1 58V559Q1 689 26 747T122 806Q160 806 181 774T202 683Q202 576
91 465V377Q133 452 224 452Q289 452 327 411T366 293V151Q366 94 384 65T437 36T499 83T527 231Q528 237 542 237ZM91 513Q159 601 159 684T123 767Q103 767 97 721T91 513Z" />
<glyph unicode="i" glyph-name="i" horiz-adv-x="281" d="M-10 567T-10 592T7 634T49 652T91 635T109 592T92 550T49 533T7 550ZM3 421T18 436T56 452T93 438V151Q93 94 115 65T175 36T246 82T279 231Q281 237 294 237Q312 237 312 184Q312 107 270 52T163 -3Q82
-3 43 45T3 181V391Q3 421 18 436Z" />
<glyph unicode="j" glyph-name="j" horiz-adv-x="198" d="M-1 421T14 436T52 452T89 438V-115Q101 -114 127 -114T153 -136L147 -151Q108 -151 89 -152V-173Q89 -269 48 -324T-62 -379Q-102 -379 -133 -353T-164 -270T-120 -177T-1 -126V391Q-1 421 14 436ZM-64
-340Q-32 -340 -17 -313T-1 -214V-164Q-113 -191 -113 -273Q-113 -340 -64 -340ZM-14 622T-14 647T3 689T45 707T87 690T105 647T88 605T45 588T3 605Z" />
<glyph unicode="k" glyph-name="k" horiz-adv-x="521" d="M534 237Q552 237 552 184Q552 101 514 49T409 -3T295 41T236 149Q169 121 91 117V11Q81 -3 56 -3T16 12T1 58V559Q1 689 26 747T122 806Q160 806 181 774T202 683Q202 576 91 465V369Q136 452 235 452Q298
452 336 419T375 329Q375 252 309 194Q314 133 346 85T427 36Q465 36 492 83T519 231Q520 237 534 237ZM287 328Q287 370 269 393T223 417Q168 417 130 358T91 156Q177 165 232 215T287 328ZM91 513Q159 601 159 684T123 767Q103 767 97 721T91 513Z" />
<glyph unicode="l" glyph-name="l" horiz-adv-x="279" d="M294 237Q312 237 312 184Q312 107 270 52T163 -3Q82 -3 42 45T2 181V557Q2 686 29 746T124 806Q223 806 223 672Q223 571 184 510T93 419V151Q93 94 115 65T175 36T246 82T279 231Q281 237 294 237ZM180
671Q180 767 132 767Q120 767 114 759T102 719Q93 670 93 461Q180 524 180 671Z" />
<glyph unicode="m" glyph-name="m" horiz-adv-x="765" d="M254 58V298Q254 417 194 417Q144 417 118 362T91 168V11Q81 -3 56 -3T16 12T1 58V438Q11 452 36 452T76 437T91 391Q125 452 206 452Q301 452 334 371Q368 452 461 452Q526 452 564 411T603 293V151Q603
94 621 65T674 36T737 80T764 231Q765 237 779 237Q797 237 797 184Q797 99 761 48T654 -3T547 45T509 181V298Q509 417 449 417Q347 417 347 166V11Q337 -3 312 -3T270 12T254 58Z" />
<glyph unicode="n" glyph-name="n" horiz-adv-x="528" d="M541 237Q559 237 559 184Q559 99 523 48T416 -3T309 45T271 181V298Q271 417 211 417Q158 417 124 363T90 182V11Q80 -3 55 -3T15 12T0 58V438Q10 452 38 452Q90 452 90 377Q132 452 223 452Q288 452
326 411T365 293V151Q365 94 383 65T436 36T499 80T526 231Q527 237 541 237Z" />
<glyph unicode="o" glyph-name="o" horiz-adv-x="472" d="M291 452T347 393T403 233T351 64T210 -3T64 57T5 225T59 392T202 452ZM203 413Q176 413 157 400T137 361Q137 297 187 239T306 161Q308 199 308 226Q308 330 286 371T203 413ZM100 226Q100 124 125 80T209
36Q249 36 270 56T300 123Q235 137 181 182T101 282Q100 265 100 226Z" />
<glyph unicode="p" glyph-name="p" horiz-adv-x="549" d="M389 367Q422 310 422 214T374 58T247 -2Q201 -2 166 30T130 132Q130 296 293 377Q267 413 221 413T132 367T90 229V-366Q80 -380 55 -380T15 -365T0 -319V438Q10 452 35 452T75 437T90 391V369Q142 452
227 452T361 404Q466 438 596 438Q623 438 623 416L617 401Q496 401 389 367ZM245 37Q327 37 327 200Q327 286 313 335Q181 263 181 129Q181 85 200 61T245 37Z" />
<glyph unicode="q" glyph-name="q" horiz-adv-x="505" d="M379 -349T364 -364T326 -380T289 -366V66Q247 -3 173 -3Q-2 -3 -2 226Q-2 342 52 397T197 452Q266 452 295 423Q308 452 336 452T379 438V-319Q379 -349 364 -364ZM121 59T139 48T190 36T256 80T289 220V280Q289
351 265 382T210 413T160 407T126 382Q93 346 93 226Q93 147 107 103Z" />
<glyph unicode="r" glyph-name="r" horiz-adv-x="389" d="M91 170V11Q81 -3 56 -3T16 12T1 58V438Q11 452 36 452T76 437T91 391V315Q141 439 229 439Q292 439 321 406T350 326Q350 301 335 286T306 271Q280 271 272 283Q278 298 278 326T259 377T213 400Q166
400 129 315T91 170Z" />
<glyph unicode="s" glyph-name="s" horiz-adv-x="428" d="M145 215T106 230T39 275T12 349T54 423T176 452T302 424T348 359Q348 341 335 330T308 319Q283 319 275 331Q281 338 281 358T250 396T181 413T118 399T93 357T121 307T190 272T271 242T340 197T369 124Q369
60 314 29T168 -3T21 49T-36 180Q-36 208 -25 224T0 240Q26 240 30 231L32 228Q26 213 26 191Q26 124 65 80T173 36Q279 36 280 111Q280 168 185 201Q145 215 106 230Z" />
<glyph unicode="t" glyph-name="t" horiz-adv-x="316" d="M0 569T15 584T53 600T90 586V438H227Q248 438 254 430T261 403H90V151Q90 96 121 66T194 36Q256 36 285 82T314 231Q316 237 329 237Q347 237 347 184Q347 103 307 50T182 -3T49 41T0 172V539Q0 569 15 584Z" />
<glyph unicode="u" glyph-name="u" horiz-adv-x="527" d="M269 421T286 436T327 452T365 438V151Q365 94 383 65T432 36Q463 36 492 72Q526 115 526 231Q527 237 541 237Q559 237 559 184Q559 99 523 48T420 -3Q315 -3 282 92Q243 -3 139 -3Q77 -3 39 34T1 142V391Q1
421 16 436T54 452T91 438V151Q91 32 151 32Q196 32 232 86T269 238V391Q269 421 286 436Z" />
<glyph unicode="v" glyph-name="v" horiz-adv-x="505" d="M-10 421T5 436T43 452T80 438V226Q80 32 195 32Q220 32 239 47Q197 87 176 147T155 263Q155 362 183 412T280 463Q327 463 355 431T384 346Q384 155 301 56Q335 36 377 36Q433 36 469 84T505 231Q506
237 520 237Q538 237 538 190Q538 107 496 52T368 -3Q310 -3 268 25Q228 -3 183 -3Q97 -3 44 59T-10 231V391Q-10 421 5 436ZM265 409Q206 409 206 280T267 83Q305 154 305 320Q305 409 265 409Z" />
<glyph unicode="w" glyph-name="w" horiz-adv-x="771" d="M255 233L253 377Q253 401 254 414T266 440T295 453Q351 453 351 373Q351 328 345 285V226Q345 32 460 32Q485 32 504 47Q462 87 441 147T420 263Q420 362 448 412T545 463Q592 463 620 431T649 346Q649
155 566 56Q600 36 642 36Q698 36 734 84T770 231Q771 237 785 237Q803 237 803 190Q803 107 761 52T633 -3Q575 -3 533 25Q493 -3 448 -3Q334 -3 282 92Q224 -3 146 -3T24 58T-20 231V391Q-20 421 -5 436T33 452T70 438V226Q70 32 155 32Q193 32 223 74Q255 117
255 233ZM530 409Q471 409 471 280T532 83Q570 154 570 320Q570 409 530 409Z" />
<glyph unicode="x" glyph-name="x" horiz-adv-x="515" d="M430 26Q466 26 491 73T516 231Q517 237 531 237Q549 237 549 184Q549 95 514 41T414 -13T305 26T215 152Q178 78 137 37T39 -5Q28 -5 22 1T16 14T22 27T46 33T85 45T126 86Q155 127 189 201L118 336Q96
378 83 395T55 412Q24 412 24 372L28 348Q24 342 13 342Q-7 342 -7 376T12 431T75 452T155 422T230 321L248 286Q313 410 384 439Q416 452 454 452Q474 452 474 436Q474 415 451 415Q396 415 354 369T272 241L321 151Q355 86 379 56T430 26Z" />
<glyph unicode="y" glyph-name="y" horiz-adv-x="487" d="M0 421T15 436T53 452T90 438V151Q90 32 150 32Q204 32 238 89T273 281V391Q273 421 288 436T326 452T363 438V-70Q375 -69 401 -69T427 -91L421 -106Q383 -106 363 -107V-157Q363 -260 317 -319T192 -379Q146
-379 111 -352T75 -265Q75 -189 129 -144T273 -81V75Q231 -3 138 -3Q74 -3 37 38T0 156V391Q0 421 15 436ZM126 -268Q126 -303 145 -321T191 -340T235 -324Q273 -290 273 -119Q126 -152 126 -268Z" />
<glyph unicode="z" glyph-name="z" horiz-adv-x="456" d="M20 197Q7 197 5 214Q5 252 -1 306T-8 385T8 425T68 441H385Q404 439 404 419Q404 323 349 237T217 102Q267 84 308 46T370 -46Q393 -45 442 -45Q460 -45 467 -53T474 -72L468 -87Q439 -87 383 -89Q390
-122 390 -150Q390 -253 335 -316T184 -380Q125 -380 79 -348T32 -246Q32 -88 290 -54Q265 55 164 76Q138 67 115 67Q101 72 101 89Q101 115 145 115Q201 115 251 207T301 399H68Q47 399 40 389T32 353L38 214Q38 197 20 197ZM300 -148Q300 -122 297 -98Q83 -132
83 -249Q83 -293 111 -317T186 -341T266 -296T300 -148Z" />
<glyph unicode="{" glyph-name="braceleft" horiz-adv-x="357" d="M54 370Q54 531 76 630T137 769T233 810H272Q289 810 298 802T308 783T306 768T302 760T299 759H259Q213 759 189 726T155 610T144 365V342Q144 323 142 318T138 305T132 294Q120 281 114 279T99
277Q117 275 123 268T132 256T138 243T141 230T143 215T144 202V178Q144 -24 154 -128T188 -274T257 -316Q258 -316 299 -315Q308 -321 308 -335T299 -358T272 -367H233Q176 -366 138 -319T77 -149T54 173Q54 176 54 188T52 210Q49 230 8 230Q-7 230 -11 240T-16
275T-12 312T12 323T42 329T53 342T54 370Z" />
<glyph unicode="|" glyph-name="bar" horiz-adv-x="140" d="M60 814Q105 814 105 753V-366Q102 -380 74 -380Q29 -380 29 -319V800Q32 814 60 814Z" />
<glyph unicode="}" glyph-name="braceright" horiz-adv-x="372" d="M3 -367T-6 -359T-16 -336T-7 -315Q34 -316 35 -316Q80 -316 103 -275T137 -129T148 178V202Q148 222 150 228T154 243T159 256T168 266Q175 275 193 277Q176 277 170 284L160 294Q156 297 154
304T151 316T149 329T148 342V365Q148 526 138 609T103 726T33 759H-7Q-7 758 -9 760Q-16 767 -16 780T-7 801T20 810H59Q116 809 154 770T215 631T238 370Q238 345 242 336T256 325T282 323T303 312T308 276T304 240T281 230T252 224T240 210T238 189V173Q238
-27 215 -149T154 -318T59 -367H20Q3 -367 -6 -359Z" />
<glyph unicode="~" glyph-name="asciitilde" horiz-adv-x="523" d="M504 207T467 181T374 155T247 194T137 234T78 211T57 153Q10 153 10 202Q10 243 48 271T138 300T232 280T307 241T376 221T434 245T457 300Q478 300 491 288T504 255Q504 207 467 181Z" />
<glyph unicode="&#xa1;" glyph-name="exclamdown" horiz-adv-x="205" d="M149 -255Q138 -274 114 -274T73 -258T58 -215L78 243Q84 252 98 252T121 243T130 216L149 -255ZM43 371T43 396T60 438T102 455T144 438T162 396T145 354T102 336T60 353Z" />
<glyph unicode="&#xa2;" glyph-name="cent" horiz-adv-x="405" d="M185 -118Q172 -118 164 -104V0Q87 12 44 67T0 219T41 375T160 448V523Q160 559 190 559Q204 559 210 549L211 452Q273 451 306 417T340 339Q340 314 325 299T296 284Q270 284 262 296Q268 311
268 335T252 380T214 410V36Q252 38 278 66T304 149Q305 155 319 155Q340 155 340 120T310 42T215 -3V-62Q215 -118 185 -118ZM95 211Q95 82 161 46V409Q121 399 108 355T95 211Z" />
<glyph unicode="&#xa3;" glyph-name="sterling" horiz-adv-x="736" d="M82 345Q82 360 91 367H181V547Q181 682 220 743T340 805Q389 805 417 776T446 702L400 705Q400 729 383 746T340 763Q271 763 271 597V368H360Q377 368 386 360T396 337T387 316H271V242Q271
174 256 120Q260 116 273 105T292 89T310 73T329 58T349 45T371 32T393 23T419 14Q450 8 476 8Q575 8 625 54T676 189Q677 195 686 195T701 192Q716 181 716 143Q716 60 645 6T475 -49Q400 -49 344 -19T234 63Q189 -23 104 -23Q48 -23 19 6T-11 84T20 163T97 194T179
176Q181 218 181 246V316H118Q82 316 82 345ZM34 85Q34 19 104 19Q160 19 174 120Q134 153 102 153T52 135T34 85Z" />
<glyph unicode="&#xa4;" glyph-name="currency" horiz-adv-x="833" d="M106 238T106 332T171 493L114 564Q114 576 122 585T144 594T170 582L213 527Q269 563 335 563T456 530L498 582Q510 594 523 594T545 585T554 564L499 496Q568 427 568 332T500 168L554 101Q554
89 546 80T525 71T499 84L458 135Q404 101 336 101T212 137L169 84Q156 71 144 71T123 80T114 101L170 172Q106 238 106 332ZM397 180T444 224T491 334T444 446T335 492T226 448T179 337T226 226T335 180Z" />
<glyph unicode="&#xa5;" glyph-name="yen" horiz-adv-x="670" d="M342 11T332 0T301 -12T270 -3V219L78 220Q69 226 69 242Q69 271 105 271H270V317L232 383L78 384Q69 390 69 406Q69 435 105 435H202L86 637Q78 651 78 662T86 682Q103 700 134 700L306 396L483
700Q512 700 528 682Q535 674 535 663T527 637L410 435H528Q537 429 537 415T528 392T501 383L380 384L341 315V271H533Q542 265 542 251T533 228T506 219L341 220L342 30Q342 11 332 0Z" />
<glyph unicode="&#xa6;" glyph-name="brokenbar" horiz-adv-x="141" d="M68 814Q113 814 113 753V300Q110 286 82 286Q37 286 37 347V800Q40 814 68 814ZM68 180Q113 180 113 119V-364Q110 -378 82 -378Q37 -378 37 -317V166Q40 180 68 180Z" />
<glyph unicode="&#xa7;" glyph-name="section" horiz-adv-x="642" d="M109 410Q56 460 56 547T124 687T300 740T472 691T536 584Q536 544 521 525T484 505Q445 505 434 520L431 525Q441 538 441 575Q441 632 393 664T282 697T181 663T144 580T166 499T225 448T304
416T391 386T471 346T529 279T552 167T510 45Q552 -7 552 -89Q552 -196 476 -253T286 -310T87 -252T2 -105Q2 -64 18 -41T56 -17Q95 -17 106 -30L109 -35Q100 -60 100 -96Q100 -164 155 -215T301 -266Q366 -266 413 -221T460 -111Q460 -63 438 -29T380 24T301 58T215
88T137 125T79 185T56 277Q56 357 109 410ZM448 95Q460 122 460 160T442 230T388 282T319 315T237 344T161 375Q144 350 144 310T163 239T217 188T288 157Q411 116 448 95Z" />
<glyph unicode="&#xa8;" glyph-name="dieresis" horiz-adv-x="393" d="M91 566T91 586T104 620T138 634T172 620T186 586T172 553T138 539T105 552ZM240 566T240 586T253 620T287 634T321 620T335 586T321 553T288 539T254 552Z" />
<glyph unicode="&#xa9;" glyph-name="copyright" horiz-adv-x="610" d="M398 297Q419 297 419 267T392 213T312 189Q238 189 195 235T152 359T194 482T316 526Q368 526 399 496T431 433T416 386T386 371Q361 371 353 383Q359 398 359 425T348 469T307 487Q247
487 247 358T312 228Q383 228 383 291Q384 297 398 297ZM19 244T19 361T104 561T307 644T509 561T595 361T510 161T307 78T105 161ZM81 455T81 361T147 201T307 135T467 201T533 361T467 521T307 587T147 521Z" />
<glyph unicode="&#xaa;" glyph-name="ordfeminine" horiz-adv-x="544" d="M363 607Q377 630 403 630T444 616V340Q434 326 406 326Q364 326 356 367Q326 332 273 332T185 369T150 484T190 596T284 631T363 607ZM354 488Q354 562 331 580Q315 592 292 592T253 564T237
483Q237 371 286 371Q354 371 354 488Z" />
<glyph unicode="&#xab;" glyph-name="guillemotleft" horiz-adv-x="833" d="M374 59Q406 33 406 19T397 -8T368 -30L130 167Q96 195 96 215T130 265L368 466Q383 459 394 445T405 417T374 377L185 216L374 59ZM622 59Q654 33 654 19T645 -8T616 -30L378 167Q344
195 344 215T378 265L616 466Q631 459 642 445T653 417T622 377L433 216L622 59Z" />
<glyph unicode="&#xac;" glyph-name="logicalnot" horiz-adv-x="537" d="M32 406Q32 451 93 451L425 452Q470 452 470 391L471 248Q468 234 440 234Q395 234 395 295L394 376L46 375Q32 378 32 406Z" />
<glyph unicode="&#xad;" glyph-name="uni00AD" horiz-adv-x="443" d="M46 259Q46 304 107 304L341 305Q355 302 355 274Q355 229 294 229L60 228Q46 231 46 259Z" />
<glyph unicode="&#xae;" glyph-name="registered" horiz-adv-x="616" d="M19 244T19 361T104 561T307 644T509 561T595 361T510 161T307 78T105 161ZM221 469T233 478T262 488T290 483V385H311Q343 385 355 400T367 445T352 488T294 501T223 485T194 438L197 422Q188
417 179 417T162 425T153 445Q153 491 197 515T293 540Q434 540 434 445Q434 413 410 390T355 365Q386 363 403 343T425 300T443 257T480 237L498 241Q533 297 533 361Q533 455 467 521T307 587T147 521T81 361T147 201T304 135T461 195Q428 197 409 212T383 248T370
288Q356 335 311 335H290Q288 260 270 230T204 200Q138 200 138 268Q138 286 146 295T162 304Q174 304 183 293Q179 286 179 270Q179 242 201 242Q221 242 221 324V452Q221 469 233 478Z" />
<glyph unicode="&#xb0;" glyph-name="degree" horiz-adv-x="420" d="M75 589T75 646T115 743T212 784T309 744T350 646T310 549T212 509T115 549ZM142 675T142 646T162 597T212 576T261 596T282 646T262 695T212 716T163 696Z" />
<glyph unicode="&#xb1;" glyph-name="plusminus" horiz-adv-x="452" d="M26 283Q26 328 87 328H182V472Q185 486 213 486Q258 486 258 425V328L401 329Q415 326 415 298Q415 253 354 253L258 252L259 111Q256 97 228 97Q183 97 183 158L182 252H40Q26 255 26 283ZM26
30Q26 75 87 75L401 76Q415 73 415 45Q415 0 354 0L40 -1Q26 2 26 30Z" />
<glyph unicode="&#xb2;" glyph-name="twosuperior" horiz-adv-x="376" d="M324 578Q356 578 356 532T321 459T244 433T156 464Q124 448 90 448Q19 448 19 505Q19 565 93 565Q118 565 153 542Q188 577 210 617T233 691T215 740T172 756T129 741T110 701L115 682Q103
659 84 659T53 671T40 703Q40 751 75 783T172 816T272 786T312 689Q312 649 281 597T210 506Q230 500 248 500T279 514T292 544V558Q304 578 324 578ZM126 511Q108 529 92 529Q65 529 65 510Q65 488 89 488Q101 488 110 494T123 505T126 511Z" />
<glyph unicode="&#xb3;" glyph-name="threesuperior" horiz-adv-x="360" d="M95 501T120 491T176 480T227 497T248 546T224 595T162 612Q152 612 143 618T133 639T142 661T162 668Q236 668 236 711Q236 734 222 746T185 759Q122 759 122 723L127 705Q115 682 97
682T66 694T53 726Q53 764 86 791T182 818T279 791T315 716T276 639Q327 606 327 547T284 454T181 421T81 447T42 506T67 538Q79 538 89 530L95 517Q95 501 120 491Z" />
<glyph unicode="&#xb4;" glyph-name="acute" horiz-adv-x="217" d="M38 525Q24 525 14 534T-4 563L105 757Q124 790 153 790Q167 790 177 781T196 752L85 557Q66 525 38 525Z" />
<glyph unicode="&#xb5;" glyph-name="mu" horiz-adv-x="493" d="M74 421T89 436T127 452T164 438V151Q164 32 224 32Q270 32 306 87T342 244V391Q342 421 359 436T394 452Q423 452 437 438L439 5Q420 -9 392 -9Q345 -9 345 52V71Q303 -3 212 -3Q188 -3 164 4V-365Q145
-379 117 -379Q74 -379 74 -318V391Q74 421 89 436Z" />
<glyph unicode="&#xb6;" glyph-name="paragraph" horiz-adv-x="833" d="M412 727L462 726V794Q475 808 498 808T537 793T552 747V709Q628 686 675 640T722 547Q722 522 707 507T678 492Q652 492 644 504Q650 519 650 545T623 599T552 647L551 -3Q533 -17 505 -17Q460
-17 460 44L461 675Q436 678 415 678L414 -3Q396 -17 368 -17Q323 -17 323 44V265Q315 264 298 264Q180 264 108 325T36 489Q36 727 412 727ZM324 672Q132 642 132 488Q132 406 173 363T306 316H323L324 672Z" />
<glyph unicode="&#xb7;" glyph-name="middot" horiz-adv-x="170" d="M13 292T13 312T26 346T60 360T94 346T108 312T94 279T60 265T27 278Z" />
<glyph unicode="&#xb8;" glyph-name="cedilla" horiz-adv-x="223" d="M47 -161L73 -163Q125 -163 125 -128Q125 -102 90 -76Q77 -67 66 -46T55 3H93Q93 -30 140 -51Q157 -59 171 -78T186 -125Q186 -171 153 -199T79 -227Q56 -227 44 -216T32 -189T47 -161Z" />
<glyph unicode="&#xb9;" glyph-name="onesuperior" horiz-adv-x="400" d="M88 436T79 445T70 468T85 495H154V718Q149 715 136 705Q104 682 88 682Q59 682 59 714V728L166 798Q186 810 200 810T224 801T234 780V496H277Q294 496 303 487T312 464T293 436H105Q88
436 79 445Z" />
<glyph unicode="&#xba;" glyph-name="ordmasculine" horiz-adv-x="346" d="M330 564T330 487T291 372T191 334T88 372T46 487T86 600T188 637T289 601ZM129 487Q129 371 191 371Q221 371 234 398T247 486T234 573T188 600T142 572T129 487Z" />
<glyph unicode="&#xbb;" glyph-name="guillemotright" horiz-adv-x="546" d="M376 -30Q338 -11 338 19Q338 33 370 59L559 216L370 377Q339 403 339 417T348 443T376 466L614 265Q647 237 647 216T614 167L376 -30ZM128 -30Q90 -11 90 19Q90 33 122 59L311 216L122
377Q91 403 91 417T100 443T128 466L366 265Q399 237 399 216T366 167L128 -30Z" />
<glyph unicode="&#xbc;" glyph-name="onequarter" horiz-adv-x="1004" d="M108 436T99 445T90 468T105 495H174V718Q169 715 156 705Q124 682 108 682Q79 682 79 714V728L186 798Q205 810 219 810T244 801T254 780V496H297Q314 496 323 487T332 464T313 436H125Q108
436 99 445ZM710 0T701 9T692 33T711 61H746V94Q734 97 703 110T651 123H646Q625 99 567 90Q555 110 555 120Q555 153 601 170Q631 208 631 311Q631 345 663 345T696 310Q696 229 676 177Q683 177 745 159V301Q745 332 759 348T788 364T824 351V150Q838 150 843
161T849 204Q884 204 884 157Q884 96 824 87V61H838Q854 61 863 52T873 28T857 0H727Q710 0 701 9ZM661 809Q672 809 679 803T690 783L338 43Q323 11 307 -1T274 -14Q246 -14 242 4L240 10L596 760Q619 809 661 809Z" />
<glyph unicode="&#xbd;" glyph-name="onehalf" horiz-adv-x="1018" d="M108 436T99 445T90 468T105 495H174V718Q169 715 156 705Q124 682 108 682Q79 682 79 714V728L186 798Q205 810 219 810T244 801T254 780V496H297Q314 496 323 487T332 464T313 436H125Q108
436 99 445ZM661 809Q672 809 679 803T690 783L338 43Q323 11 307 -1T274 -14Q246 -14 242 4L240 10L596 760Q619 809 661 809ZM834 123Q866 123 866 77T831 4T754 -22T666 9Q634 -7 600 -7Q529 -7 529 50Q529 110 603 110Q628 110 663 87Q698 122 720 162T743
236T725 285T682 301T639 286T620 246L625 227Q613 204 594 204T563 216T550 248Q550 296 585 328T682 361T782 331T822 234Q822 194 791 142T720 51Q740 45 758 45T789 59T802 88V103Q814 123 834 123ZM636 56Q618 74 602 74Q575 74 575 55Q575 33 599 33Q611
33 620 38T633 50T636 56Z" />
<glyph unicode="&#xbe;" glyph-name="threequarters" horiz-adv-x="1026" d="M169 480T201 480T253 497T274 546T250 595T188 612Q178 612 169 618T159 639T168 661T188 668Q262 668 262 711Q262 734 248 746T211 759Q148 759 148 723L153 705Q141 682 123 682T92
694T79 726Q79 764 112 791T208 818T305 791T341 716T302 639Q353 608 353 548T310 454T207 421T107 447T68 506T93 538Q105 538 115 530Q119 505 144 493ZM710 0T701 9T692 33T711 61H746V94Q734 97 703 110T651 123H646Q625 99 567 90Q555 110 555 120Q555 153
601 170Q631 208 631 311Q631 345 663 345T696 310Q696 229 676 177Q683 177 745 159V301Q745 332 759 348T788 364T824 351V150Q838 150 843 161T849 204Q884 204 884 157Q884 96 824 87V61H838Q854 61 863 52T873 28T857 0H727Q710 0 701 9ZM661 809Q672 809
679 803T690 783L338 43Q323 11 307 -1T274 -14Q246 -14 242 4L240 10L596 760Q619 809 661 809Z" />
<glyph unicode="&#xbf;" glyph-name="questiondown" horiz-adv-x="833" d="M526 -100Q526 -81 520 -63Q526 -51 547 -51T583 -66T598 -106Q598 -194 532 -253T359 -312T185 -261T116 -104Q116 -14 165 40Q195 74 244 111T315 171Q364 222 364 302Q364 319 373
328T395 338T422 329V284Q422 202 380 150Q361 128 338 109T292 71T250 30Q208 -21 208 -102T253 -223T359 -263T473 -219T526 -100ZM433 438T433 421T422 393T394 381T366 392T354 420T365 448T393 460T421 449Z" />
<glyph unicode="&#xc0;" glyph-name="Agrave" horiz-adv-x="870" d="M821 212T821 199T812 177H670L727 -13Q729 -20 729 -31T715 -58T686 -74Q658 -74 642 -60L571 177H316L266 41Q240 -28 191 -78T64 -128Q5 -128 -28 -97T-62 -7T-34 99T42 174Q136 228 252
228L398 640Q408 669 419 683Q388 787 388 797T402 821T432 835Q461 835 477 821L654 228L785 229Q802 229 811 221ZM64 -86Q139 -86 194 65L233 176Q123 176 59 124T-6 -13Q-6 -48 13 -67T64 -86ZM457 606L335 228H555L457 606ZM334 1138Q363 1138 382 1105L491
911Q487 896 475 885T449 873Q421 873 402 905L291 1100Q294 1114 307 1126T334 1138Z" />
<glyph unicode="&#xc1;" glyph-name="Aacute" horiz-adv-x="870" d="M821 212T821 199T812 177H670L727 -13Q729 -20 729 -31T715 -58T686 -74Q658 -74 642 -60L571 177H316L266 41Q240 -28 191 -78T64 -128Q5 -128 -28 -97T-62 -7T-34 99T42 174Q136 228 252
228L398 640Q408 669 419 683Q388 787 388 797T402 821T432 835Q461 835 477 821L654 228L785 229Q802 229 811 221ZM64 -86Q139 -86 194 65L233 176Q123 176 59 124T-6 -13Q-6 -48 13 -67T64 -86ZM457 606L335 228H555L457 606ZM445 869Q431 869 421 878T403 907L512
1101Q531 1134 560 1134Q574 1134 584 1125T603 1096L492 901Q473 869 445 869Z" />
<glyph unicode="&#xc2;" glyph-name="Acircumflex" horiz-adv-x="870" d="M821 212T821 199T812 177H670L727 -13Q729 -20 729 -31T715 -58T686 -74Q658 -74 642 -60L571 177H316L266 41Q240 -28 191 -78T64 -128Q5 -128 -28 -97T-62 -7T-34 99T42 174Q136 228
252 228L398 640Q408 669 419 683Q388 787 388 797T402 821T432 835Q461 835 477 821L654 228L785 229Q802 229 811 221ZM64 -86Q139 -86 194 65L233 176Q123 176 59 124T-6 -13Q-6 -48 13 -67T64 -86ZM457 606L335 228H555L457 606ZM386 1061Q409 1094 434 1094T483
1061L597 897Q594 884 582 872T555 859Q530 859 508 891L434 995L361 891Q339 859 314 859Q300 859 290 868T272 897L386 1061Z" />
<glyph unicode="&#xc3;" glyph-name="Atilde" horiz-adv-x="870" d="M821 212T821 199T812 177H670L727 -13Q729 -20 729 -31T715 -58T686 -74Q658 -74 642 -60L571 177H316L266 41Q240 -28 191 -78T64 -128Q5 -128 -28 -97T-62 -7T-34 99T42 174Q136 228 252
228L398 640Q408 669 419 683Q388 787 388 797T402 821T432 835Q461 835 477 821L654 228L785 229Q802 229 811 221ZM64 -86Q139 -86 194 65L233 176Q123 176 59 124T-6 -13Q-6 -48 13 -67T64 -86ZM457 606L335 228H555L457 606ZM603 917T575 896T512 874T426 903T351
933Q296 933 296 862Q281 862 270 873T259 905Q259 944 287 968T353 993T440 964T513 934T551 950T566 995Q581 995 592 983T603 952Q603 917 575 896Z" />
<glyph unicode="&#xc4;" glyph-name="Adieresis" horiz-adv-x="870" d="M821 212T821 199T812 177H670L727 -13Q729 -20 729 -31T715 -58T686 -74Q658 -74 642 -60L571 177H316L266 41Q240 -28 191 -78T64 -128Q5 -128 -28 -97T-62 -7T-34 99T42 174Q136 228 252
228L398 640Q408 669 419 683Q388 787 388 797T402 821T432 835Q461 835 477 821L654 228L785 229Q802 229 811 221ZM64 -86Q139 -86 194 65L233 176Q123 176 59 124T-6 -13Q-6 -48 13 -67T64 -86ZM457 606L335 228H555L457 606ZM313 896T313 916T326 950T360 964T394
950T408 916T394 883T360 869T327 882ZM462 896T462 916T475 950T509 964T543 950T557 916T543 883T510 869T476 882Z" />
<glyph unicode="&#xc5;" glyph-name="Aring" horiz-adv-x="870" d="M821 212T821 199T812 177H670L727 -13Q729 -20 729 -31T715 -58T686 -74Q658 -74 642 -60L571 177H316L266 41Q240 -28 191 -78T64 -128Q5 -128 -28 -97T-62 -7T-34 99T42 174Q136 228 252 228L398
640Q408 669 419 683Q388 787 388 797T402 821T432 835Q461 835 477 821L654 228L785 229Q802 229 811 221ZM64 -86Q139 -86 194 65L233 176Q123 176 59 124T-6 -13Q-6 -48 13 -67T64 -86ZM457 606L335 228H555L457 606ZM328 930T328 974T359 1049T433 1080T508
1049T540 974T509 899T434 868T359 899ZM410 1032T393 1016T376 975T393 933T434 916T475 933T492 974T476 1015T435 1032Z" />
<glyph unicode="&#xc6;" glyph-name="AE" horiz-adv-x="1149" d="M1171 268Q1190 268 1190 235Q1190 124 1116 38Q1080 -4 1021 -30T890 -56Q760 -56 673 5T585 177H316L266 41Q240 -28 191 -78T64 -128Q5 -128 -28 -97T-62 -7T-34 99T42 174Q136 228 252 228L398
640Q408 669 419 683Q388 787 388 797T402 821T432 835Q461 835 477 821L628 313Q679 374 764 380Q738 382 690 412Q663 429 645 467T627 557Q627 651 693 700T868 750T1033 706T1089 599Q1089 574 1074 559T1044 544Q1019 544 1011 556Q1017 571 1017 593Q1017
647 976 674T869 701T761 665T719 557Q719 408 920 408Q931 408 940 402T950 382Q950 356 920 356Q813 356 745 312T677 177T735 40T896 -6T1076 68T1154 261Q1156 268 1171 268ZM457 606L335 228H555L457 606ZM64 -86Q139 -86 194 65L233 176Q123 176 59 124T-6
-13Q-6 -48 13 -67T64 -86Z" />
<glyph unicode="&#xc7;" glyph-name="Ccedilla" horiz-adv-x="659" d="M376 -197L402 -199Q454 -199 454 -164Q454 -147 439 -133T407 -99T385 -52Q239 -39 154 64T68 355T160 639T403 737Q500 737 555 687T610 576Q610 551 595 536T565 521Q537 521 527 533Q533
548 533 570Q533 624 499 656T398 688Q299 688 230 594T160 343T237 92T422 -4T595 61T660 228Q665 234 677 234T698 225T706 191T690 125T641 42T553 -26T427 -54Q434 -66 457 -79T497 -111T515 -168T482 -235T408 -263Q385 -263 373 -252T361 -225T376 -197Z"
/>
<glyph unicode="&#xc8;" glyph-name="Egrave" horiz-adv-x="529" d="M547 268Q566 268 566 235Q566 124 492 38Q456 -4 397 -30T266 -56Q136 -56 49 5T-39 176Q-39 225 -24 263T11 322T58 357Q102 380 141 380Q87 388 48 428Q30 445 17 479T3 557Q3 651 69 700T244
750T409 706T465 599Q465 574 450 559T420 544Q395 544 387 556Q393 571 393 593Q393 647 352 674T245 701T137 665T95 557Q95 408 296 408Q307 408 316 402T326 382Q326 356 296 356Q189 356 121 312T53 177T111 40T272 -6T452 68T530 261Q532 268 547 268ZM127
1064Q156 1064 175 1031L284 837Q280 822 268 811T242 799Q214 799 195 831L84 1026Q87 1040 100 1052T127 1064Z" />
<glyph unicode="&#xc9;" glyph-name="Eacute" horiz-adv-x="529" d="M547 268Q566 268 566 235Q566 124 492 38Q456 -4 397 -30T266 -56Q136 -56 49 5T-39 176Q-39 225 -24 263T11 322T58 357Q102 380 141 380Q87 388 48 428Q30 445 17 479T3 557Q3 651 69 700T244
750T409 706T465 599Q465 574 450 559T420 544Q395 544 387 556Q393 571 393 593Q393 647 352 674T245 701T137 665T95 557Q95 408 296 408Q307 408 316 402T326 382Q326 356 296 356Q189 356 121 312T53 177T111 40T272 -6T452 68T530 261Q532 268 547 268ZM266
795Q252 795 242 804T224 833L333 1027Q352 1060 381 1060Q395 1060 405 1051T424 1022L313 827Q294 795 266 795Z" />
<glyph unicode="&#xca;" glyph-name="Ecircumflex" horiz-adv-x="529" d="M547 268Q566 268 566 235Q566 124 492 38Q456 -4 397 -30T266 -56Q136 -56 49 5T-39 176Q-39 225 -24 263T11 322T58 357Q102 380 141 380Q87 388 48 428Q30 445 17 479T3 557Q3 651 69
700T244 750T409 706T465 599Q465 574 450 559T420 544Q395 544 387 556Q393 571 393 593Q393 647 352 674T245 701T137 665T95 557Q95 408 296 408Q307 408 316 402T326 382Q326 356 296 356Q189 356 121 312T53 177T111 40T272 -6T452 68T530 261Q532 268 547
268ZM216 993Q239 1026 264 1026T313 993L427 829Q424 816 412 804T385 791Q360 791 338 823L264 927L191 823Q169 791 144 791Q130 791 120 800T102 829L216 993Z" />
<glyph unicode="&#xcb;" glyph-name="Edieresis" horiz-adv-x="529" d="M547 268Q566 268 566 235Q566 124 492 38Q456 -4 397 -30T266 -56Q136 -56 49 5T-39 176Q-39 225 -24 263T11 322T58 357Q102 380 141 380Q87 388 48 428Q30 445 17 479T3 557Q3 651 69
700T244 750T409 706T465 599Q465 574 450 559T420 544Q395 544 387 556Q393 571 393 593Q393 647 352 674T245 701T137 665T95 557Q95 408 296 408Q307 408 316 402T326 382Q326 356 296 356Q189 356 121 312T53 177T111 40T272 -6T452 68T530 261Q532 268 547
268ZM142 828T142 848T155 882T189 896T223 882T237 848T223 815T190 801T156 814ZM291 828T291 848T304 882T338 896T372 882T386 848T372 815T338 801T305 814Z" />
<glyph unicode="&#xcc;" glyph-name="Igrave" horiz-adv-x="454" d="M367 35T367 22T358 0H89Q53 0 53 29Q53 42 62 51L170 52V648H89Q53 648 53 677Q53 689 62 700H331Q348 700 357 692T367 670T358 648H260V52H331Q348 52 357 44ZM109 1052Q138 1052 157 1019L266
825Q262 810 250 799T224 787Q196 787 177 819L66 1014Q69 1028 82 1040T109 1052Z" />
<glyph unicode="&#xcd;" glyph-name="Iacute" horiz-adv-x="454" d="M367 35T367 22T358 0H89Q53 0 53 29Q53 42 62 51L170 52V648H89Q53 648 53 677Q53 689 62 700H331Q348 700 357 692T367 670T358 648H260V52H331Q348 52 357 44ZM214 787Q200 787 190 796T172
825L281 1019Q300 1052 329 1052Q343 1052 353 1043T372 1014L261 819Q242 787 214 787Z" />
<glyph unicode="&#xce;" glyph-name="Icircumflex" horiz-adv-x="454" d="M367 35T367 22T358 0H89Q53 0 53 29Q53 42 62 51L170 52V648H89Q53 648 53 677Q53 689 62 700H331Q348 700 357 692T367 670T358 648H260V52H331Q348 52 357 44ZM170 1013Q193 1046 218
1046T267 1013L381 849Q378 836 366 824T339 811Q314 811 292 843L218 947L145 843Q123 811 98 811Q84 811 74 820T56 849L170 1013Z" />
<glyph unicode="&#xcf;" glyph-name="Idieresis" horiz-adv-x="454" d="M367 35T367 22T358 0H89Q53 0 53 29Q53 42 62 51L170 52V648H89Q53 648 53 677Q53 689 62 700H331Q348 700 357 692T367 670T358 648H260V52H331Q348 52 357 44ZM105 828T105 848T118 882T152
896T186 882T200 848T186 815T152 801T119 814ZM254 828T254 848T267 882T301 896T335 882T349 848T335 815T302 801T268 814Z" />
<glyph unicode="&#xd0;" glyph-name="Eth" horiz-adv-x="711" d="M-37 187T-29 196T-9 205T9 199Q9 144 44 104T139 44V643Q41 618 41 561Q41 542 47 524Q41 512 20 512T-16 527T-31 567Q-31 612 14 646T139 696V767Q139 797 154 812T191 828T229 814V706Q239
707 259 707Q424 707 530 621Q582 578 611 507T641 341Q641 161 534 69T248 -23Q113 -23 38 36T-37 173Q-37 187 -29 196ZM419 380T428 372T438 349T429 328H231L233 27Q549 27 549 341Q549 495 472 576T264 658L230 657L231 379L402 380Q419 380 428 372Z" />
<glyph unicode="&#xd1;" glyph-name="Ntilde" horiz-adv-x="942" d="M107 525Q107 507 115 489Q106 477 85 477T50 492T35 541Q35 620 83 669T211 719Q343 719 368 575Q390 642 440 682T557 722Q661 721 713 644T765 436V153Q765 95 788 60T850 25Q944 25 944
213Q945 219 954 219T969 216Q984 205 984 167Q984 83 944 31T838 -21Q746 -21 710 40T673 213V436Q673 672 557 672Q512 672 479 650T426 594T396 515Q377 441 377 346V218Q377 94 338 22T219 -51T99 -15T59 82Q59 159 109 159Q121 159 130 154T145 136Q137 115
137 74T158 11T213 -10Q284 -10 284 158V545Q284 603 261 638T197 673T132 641T107 525ZM643 841T615 820T552 798T466 827T391 857Q336 857 336 786Q321 786 310 797T299 829Q299 868 327 892T393 917T480 888T553 858T591 874T606 919Q621 919 632 907T643 876Q643
841 615 820Z" />
<glyph unicode="&#xd2;" glyph-name="Ograve" horiz-adv-x="813" d="M369 657T380 647T391 624T385 610Q285 610 230 535T175 322T235 88T402 -8T572 93T636 347T562 602T367 704T163 636T74 472Q70 464 55 464Q29 466 29 498T42 563T84 631T152 692T249 737T374
754Q535 754 631 639T728 346T640 61T403 -48T169 55T83 333Q83 415 109 480T178 582Q263 657 351 657Q369 657 380 647ZM280 1064Q309 1064 328 1031L437 837Q433 822 421 811T395 799Q367 799 348 831L237 1026Q240 1040 253 1052T280 1064Z" />
<glyph unicode="&#xd3;" glyph-name="Oacute" horiz-adv-x="813" d="M369 657T380 647T391 624T385 610Q285 610 230 535T175 322T235 88T402 -8T572 93T636 347T562 602T367 704T163 636T74 472Q70 464 55 464Q29 466 29 498T42 563T84 631T152 692T249 737T374
754Q535 754 631 639T728 346T640 61T403 -48T169 55T83 333Q83 415 109 480T178 582Q263 657 351 657Q369 657 380 647ZM345 796Q331 796 321 805T303 834L412 1028Q431 1061 460 1061Q474 1061 484 1052T503 1023L392 828Q373 796 345 796Z" />
<glyph unicode="&#xd4;" glyph-name="Ocircumflex" horiz-adv-x="813" d="M369 657T380 647T391 624T385 610Q285 610 230 535T175 322T235 88T402 -8T572 93T636 347T562 602T367 704T163 636T74 472Q70 464 55 464Q29 466 29 498T42 563T84 631T152 692T249
737T374 754Q535 754 631 639T728 346T640 61T403 -48T169 55T83 333Q83 415 109 480T178 582Q263 657 351 657Q369 657 380 647ZM300 1063Q323 1096 348 1096T397 1063L511 899Q508 886 496 874T469 861Q444 861 422 893L348 997L275 893Q253 861 228 861Q214
861 204 870T186 899L300 1063Z" />
<glyph unicode="&#xd5;" glyph-name="Otilde" horiz-adv-x="813" d="M369 657T380 647T391 624T385 610Q285 610 230 535T175 322T235 88T402 -8T572 93T636 347T562 602T367 704T163 636T74 472Q70 464 55 464Q29 466 29 498T42 563T84 631T152 692T249 737T374
754Q535 754 631 639T728 346T640 61T403 -48T169 55T83 333Q83 415 109 480T178 582Q263 657 351 657Q369 657 380 647ZM550 854T522 833T459 811T373 840T298 870Q243 870 243 799Q228 799 217 810T206 842Q206 881 234 905T300 930T387 901T460 871T498 887T513
932Q528 932 539 920T550 889Q550 854 522 833Z" />
<glyph unicode="&#xd6;" glyph-name="Odieresis" horiz-adv-x="813" d="M369 657T380 647T391 624T385 610Q285 610 230 535T175 322T235 88T402 -8T572 93T636 347T562 602T367 704T163 636T74 472Q70 464 55 464Q29 466 29 498T42 563T84 631T152 692T249 737T374
754Q535 754 631 639T728 346T640 61T403 -48T169 55T83 333Q83 415 109 480T178 582Q263 657 351 657Q369 657 380 647ZM270 848T270 868T283 902T317 916T351 902T365 868T351 835T317 821T284 834ZM419 848T419 868T432 902T466 916T500 902T514 868T500 835T467
821T433 834Z" />
<glyph unicode="&#xd7;" glyph-name="multiply" horiz-adv-x="370" d="M43 176Q43 198 67 223L134 290L32 392Q32 424 60 434Q66 436 73 436Q95 436 119 413L188 344L288 446Q321 446 330 418Q332 412 332 406Q332 384 309 359L241 290L342 191Q342 159 314 150Q308
147 301 147Q279 147 255 171L188 237L87 136Q54 136 45 164Q43 170 43 176Z" />
<glyph unicode="&#xd8;" glyph-name="Oslash" horiz-adv-x="643" d="M275 657T286 647T297 624T291 610Q191 610 136 535T81 333Q81 164 154 68L429 644Q363 704 278 704Q153 704 69 636T-20 472Q-24 464 -39 464Q-65 466 -65 498T-52 563T-10 631T58 692T155
737T280 754Q441 754 537 639T634 346T546 61T309 -48T75 55T-11 333Q-11 415 15 480T84 582Q169 657 257 657Q275 657 286 647ZM415 -8T478 93T542 349T464 606L189 33Q241 -8 306 -8Q415 -8 478 93Z" />
<glyph unicode="&#xd9;" glyph-name="Ugrave" horiz-adv-x="753" d="M486 683T501 698T537 714T579 700V157Q579 99 602 64T664 29Q758 29 758 217Q759 223 768 223T783 220Q798 209 798 171Q798 87 758 35T652 -17Q525 -17 497 115Q476 45 426 3T306 -39Q203
-38 152 38T101 243V560Q101 618 78 653T14 688T-51 656T-76 540Q-76 522 -68 504Q-77 492 -98 492T-133 507T-148 556Q-148 635 -100 684T28 734Q123 734 158 667Q190 608 190 500V247Q190 11 306 11Q389 11 437 90T486 292V653Q486 683 501 698ZM210 1052Q239
1052 258 1019L367 825Q363 810 351 799T325 787Q297 787 278 819L167 1014Q170 1028 183 1040T210 1052Z" />
<glyph unicode="&#xda;" glyph-name="Uacute" horiz-adv-x="753" d="M486 683T501 698T537 714T579 700V157Q579 99 602 64T664 29Q758 29 758 217Q759 223 768 223T783 220Q798 209 798 171Q798 87 758 35T652 -17Q525 -17 497 115Q476 45 426 3T306 -39Q203
-38 152 38T101 243V560Q101 618 78 653T14 688T-51 656T-76 540Q-76 522 -68 504Q-77 492 -98 492T-133 507T-148 556Q-148 635 -100 684T28 734Q123 734 158 667Q190 608 190 500V247Q190 11 306 11Q389 11 437 90T486 292V653Q486 683 501 698ZM318 787Q304
787 294 796T276 825L385 1019Q404 1052 433 1052Q447 1052 457 1043T476 1014L365 819Q346 787 318 787Z" />
<glyph unicode="&#xdb;" glyph-name="Ucircumflex" horiz-adv-x="753" d="M486 683T501 698T537 714T579 700V157Q579 99 602 64T664 29Q758 29 758 217Q759 223 768 223T783 220Q798 209 798 171Q798 87 758 35T652 -17Q525 -17 497 115Q476 45 426 3T306 -39Q203
-38 152 38T101 243V560Q101 618 78 653T14 688T-51 656T-76 540Q-76 522 -68 504Q-77 492 -98 492T-133 507T-148 556Q-148 635 -100 684T28 734Q123 734 158 667Q190 608 190 500V247Q190 11 306 11Q389 11 437 90T486 292V653Q486 683 501 698ZM328 977Q351
1010 376 1010T425 977L539 813Q536 800 524 788T497 775Q472 775 450 807L376 911L303 807Q281 775 256 775Q242 775 232 784T214 813L328 977Z" />
<glyph unicode="&#xdc;" glyph-name="Udieresis" horiz-adv-x="753" d="M486 683T501 698T537 714T579 700V157Q579 99 602 64T664 29Q758 29 758 217Q759 223 768 223T783 220Q798 209 798 171Q798 87 758 35T652 -17Q525 -17 497 115Q476 45 426 3T306 -39Q203
-38 152 38T101 243V560Q101 618 78 653T14 688T-51 656T-76 540Q-76 522 -68 504Q-77 492 -98 492T-133 507T-148 556Q-148 635 -100 684T28 734Q123 734 158 667Q190 608 190 500V247Q190 11 306 11Q389 11 437 90T486 292V653Q486 683 501 698ZM177 828T177
848T190 882T224 896T258 882T272 848T258 815T224 801T191 814ZM326 828T326 848T339 882T373 896T407 882T421 848T407 815T374 801T340 814Z" />
<glyph unicode="&#xdd;" glyph-name="Yacute" horiz-adv-x="670" d="M70 683T85 698T122 714T160 700V348Q160 27 316 27Q412 27 457 119T502 368V653Q502 683 517 698T545 714T566 713T578 709Q588 704 591 700V-155Q591 -404 412 -404Q340 -404 297 -361T253
-242Q253 -200 271 -162T316 -96T380 -44Q430 -9 501 20V64Q432 -13 312 -13T131 82T70 348V653Q70 683 85 698ZM364 -365T411 -365T479 -320T501 -155V-20Q432 -51 372 -100Q338 -129 317 -166T296 -252T330 -333ZM277 787Q263 787 253 796T235 825L344 1019Q363
1052 392 1052Q406 1052 416 1043T435 1014L324 819Q305 787 277 787Z" />
<glyph unicode="&#xde;" glyph-name="Thorn" horiz-adv-x="561" d="M100 788T118 803T161 819T191 805V624Q193 625 205 635T228 652Q258 670 300 670Q382 670 439 601T497 418T440 234T300 164Q246 164 202 200Q193 208 191 209L192 44Q192 -17 147 -17Q123 -17
101 -3L100 758Q100 788 118 803ZM292 226Q340 226 370 275T401 416T371 558T292 608Q254 608 225 585Q215 577 204 566T191 554V280Q216 255 226 248Q255 226 292 226Z" />
<glyph unicode="&#xdf;" glyph-name="germandbls" horiz-adv-x="696" d="M229 -43T214 -58T177 -74T139 -60V511Q139 623 186 684T353 746T532 694T590 551Q590 481 555 439Q525 402 501 390L491 384Q549 365 586 322Q605 300 621 260T637 170Q637 81 586 22T451
-37T326 -6T284 78Q284 100 294 111T314 122L324 123Q324 83 352 48T432 12T514 58T545 170Q545 266 486 313T317 360Q307 360 300 369T293 393Q293 412 317 412Q429 412 467 458Q498 495 498 558T458 659T354 698T260 661T229 530V-13Q229 -43 214 -58Z" />
<glyph unicode="&#xe0;" glyph-name="agrave" horiz-adv-x="544" d="M297 423Q310 452 338 452T381 438V151Q381 94 399 65T448 36Q542 36 542 231Q543 237 557 237Q575 237 575 184Q575 99 539 48T436 -3Q335 -3 302 86Q283 45 250 21T175 -3Q0 -3 0 226Q0 342
54 397T199 452Q268 452 297 423ZM123 59T141 48T189 36T254 73T290 171V308Q290 355 266 384T211 413T162 407T128 382Q95 346 95 226Q95 147 109 103ZM94 790Q123 790 142 757L251 563Q247 548 235 537T209 525Q181 525 162 557L51 752Q54 766 67 778T94 790Z"
/>
<glyph unicode="&#xe1;" glyph-name="aacute" horiz-adv-x="544" d="M297 423Q310 452 338 452T381 438V151Q381 94 399 65T448 36Q542 36 542 231Q543 237 557 237Q575 237 575 184Q575 99 539 48T436 -3Q335 -3 302 86Q283 45 250 21T175 -3Q0 -3 0 226Q0 342
54 397T199 452Q268 452 297 423ZM123 59T141 48T189 36T254 73T290 171V308Q290 355 266 384T211 413T162 407T128 382Q95 346 95 226Q95 147 109 103ZM205 525Q191 525 181 534T163 563L272 757Q291 790 320 790Q334 790 344 781T363 752L252 557Q233 525 205
525Z" />
<glyph unicode="&#xe2;" glyph-name="acircumflex" horiz-adv-x="544" d="M297 423Q310 452 338 452T381 438V151Q381 94 399 65T448 36Q542 36 542 231Q543 237 557 237Q575 237 575 184Q575 99 539 48T436 -3Q335 -3 302 86Q283 45 250 21T175 -3Q0 -3 0 226Q0
342 54 397T199 452Q268 452 297 423ZM123 59T141 48T189 36T254 73T290 171V308Q290 355 266 384T211 413T162 407T128 382Q95 346 95 226Q95 147 109 103ZM163 743Q186 776 211 776T260 743L374 579Q371 566 359 554T332 541Q307 541 285 573L211 677L138 573Q116
541 91 541Q77 541 67 550T49 579L163 743Z" />
<glyph unicode="&#xe3;" glyph-name="atilde" horiz-adv-x="544" d="M297 423Q310 452 338 452T381 438V151Q381 94 399 65T448 36Q542 36 542 231Q543 237 557 237Q575 237 575 184Q575 99 539 48T436 -3Q335 -3 302 86Q283 45 250 21T175 -3Q0 -3 0 226Q0 342
54 397T199 452Q268 452 297 423ZM123 59T141 48T189 36T254 73T290 171V308Q290 355 266 384T211 413T162 407T128 382Q95 346 95 226Q95 147 109 103ZM444 554T416 533T353 511T267 540T192 570Q137 570 137 499Q122 499 111 510T100 542Q100 581 128 605T194
630T281 601T354 571T392 587T407 632Q422 632 433 620T444 589Q444 554 416 533Z" />
<glyph unicode="&#xe4;" glyph-name="adieresis" horiz-adv-x="544" d="M297 423Q310 452 338 452T381 438V151Q381 94 399 65T448 36Q542 36 542 231Q543 237 557 237Q575 237 575 184Q575 99 539 48T436 -3Q335 -3 302 86Q283 45 250 21T175 -3Q0 -3 0 226Q0
342 54 397T199 452Q268 452 297 423ZM123 59T141 48T189 36T254 73T290 171V308Q290 355 266 384T211 413T162 407T128 382Q95 346 95 226Q95 147 109 103ZM118 566T118 586T131 620T165 634T199 620T213 586T199 553T165 539T132 552ZM267 566T267 586T280 620T314
634T348 620T362 586T348 553T315 539T281 552Z" />
<glyph unicode="&#xe5;" glyph-name="aring" horiz-adv-x="544" d="M297 423Q310 452 338 452T381 438V151Q381 94 399 65T448 36Q542 36 542 231Q543 237 557 237Q575 237 575 184Q575 99 539 48T436 -3Q335 -3 302 86Q283 45 250 21T175 -3Q0 -3 0 226Q0 342
54 397T199 452Q268 452 297 423ZM123 59T141 48T189 36T254 73T290 171V308Q290 355 266 384T211 413T162 407T128 382Q95 346 95 226Q95 147 109 103ZM130 611T130 655T161 730T236 761T311 730T342 655T311 580T236 549T161 580ZM212 713T195 697T178 656T195
614T236 597T277 614T294 655T278 696T237 713Z" />
<glyph unicode="&#xe6;" glyph-name="ae" horiz-adv-x="951" d="M553 423Q566 452 594 452T637 438V422Q682 452 744 452T836 419T865 339Q865 264 803 215T643 165Q652 101 689 69T788 36T899 82T949 219Q950 225 964 225Q985 225 985 193Q985 119 934 58T784
-3Q626 -3 570 102Q549 60 528 40Q481 -3 431 -3Q256 -3 256 226Q256 342 310 397T455 452Q524 452 553 423ZM379 59T397 48T445 36T510 73T546 171V308Q546 347 525 380T470 413T418 407T384 382Q351 346 351 226Q351 147 365 103ZM640 211V202Q702 210 747 241T793
333Q793 372 776 392T728 413Q681 413 661 367T640 211Z" />
<glyph unicode="&#xe7;" glyph-name="ccedilla" horiz-adv-x="405" d="M181 -152L207 -154Q259 -154 259 -119Q259 -101 243 -86T210 -51T189 0Q99 11 50 67T0 226T56 390T199 452Q262 452 291 419T320 339Q320 314 305 299T276 284Q250 284 242 296Q248 311 248
339T229 390T183 413Q136 413 116 367T95 223T133 80T241 36T357 78T404 199Q405 205 419 205Q440 205 440 176T428 118T394 61T331 15T239 -3H229Q237 -23 280 -46Q295 -54 307 -72T320 -116Q320 -162 287 -190T213 -218Q190 -218 178 -207T166 -181T181 -152Z"
/>
<glyph unicode="&#xe8;" glyph-name="egrave" horiz-adv-x="407" d="M420 225Q441 225 441 193Q441 119 390 58T233 -3T65 53T1 219T57 390T200 452Q263 452 292 419T321 339Q321 264 259 215T99 165Q108 101 145 69T244 36T355 82T405 219Q406 225 420 225ZM96
211V202Q158 210 203 241T249 333Q249 372 232 392T184 413Q137 413 117 367T96 211ZM81 790Q110 790 129 757L238 563Q234 548 222 537T196 525Q168 525 149 557L38 752Q41 766 54 778T81 790Z" />
<glyph unicode="&#xe9;" glyph-name="eacute" horiz-adv-x="407" d="M420 225Q441 225 441 193Q441 119 390 58T233 -3T65 53T1 219T57 390T200 452Q263 452 292 419T321 339Q321 264 259 215T99 165Q108 101 145 69T244 36T355 82T405 219Q406 225 420 225ZM96
211V202Q158 210 203 241T249 333Q249 372 232 392T184 413Q137 413 117 367T96 211ZM194 525Q180 525 170 534T152 563L261 757Q280 790 309 790Q323 790 333 781T352 752L241 557Q222 525 194 525Z" />
<glyph unicode="&#xea;" glyph-name="ecircumflex" horiz-adv-x="407" d="M420 225Q441 225 441 193Q441 119 390 58T233 -3T65 53T1 219T57 390T200 452Q263 452 292 419T321 339Q321 264 259 215T99 165Q108 101 145 69T244 36T355 82T405 219Q406 225 420 225ZM96
211V202Q158 210 203 241T249 333Q249 372 232 392T184 413Q137 413 117 367T96 211ZM155 715Q178 748 203 748T252 715L366 551Q363 538 351 526T324 513Q299 513 277 545L203 649L130 545Q108 513 83 513Q69 513 59 522T41 551L155 715Z" />
<glyph unicode="&#xeb;" glyph-name="edieresis" horiz-adv-x="407" d="M420 225Q441 225 441 193Q441 119 390 58T233 -3T65 53T1 219T57 390T200 452Q263 452 292 419T321 339Q321 264 259 215T99 165Q108 101 145 69T244 36T355 82T405 219Q406 225 420 225ZM96
211V202Q158 210 203 241T249 333Q249 372 232 392T184 413Q137 413 117 367T96 211ZM82 566T82 586T95 620T129 634T163 620T177 586T163 553T130 539T96 552ZM231 566T231 586T244 620T278 634T312 620T326 586T312 553T278 539T245 552Z" />
<glyph unicode="&#xec;" glyph-name="igrave" horiz-adv-x="281" d="M3 421T18 436T56 452T93 438V151Q93 94 115 65T175 36T246 82T279 231Q281 237 294 237Q312 237 312 184Q312 107 270 52T163 -3Q82 -3 43 45T3 181V391Q3 421 18 436ZM-57 790Q-28 790 -9
757L100 563Q96 548 84 537T58 525Q30 525 11 557L-100 752Q-97 766 -84 778T-57 790Z" />
<glyph unicode="&#xed;" glyph-name="iacute" horiz-adv-x="281" d="M3 421T18 436T56 452T93 438V151Q93 94 115 65T175 36T246 82T279 231Q281 237 294 237Q312 237 312 184Q312 107 270 52T163 -3Q82 -3 43 45T3 181V391Q3 421 18 436ZM51 525Q37 525 27 534T9
563L118 757Q137 790 166 790Q180 790 190 781T209 752L98 557Q79 525 51 525Z" />
<glyph unicode="&#xee;" glyph-name="icircumflex" horiz-adv-x="281" d="M3 421T18 436T56 452T93 438V151Q93 94 115 65T175 36T246 82T279 231Q281 237 294 237Q312 237 312 184Q312 107 270 52T163 -3Q82 -3 43 45T3 181V391Q3 421 18 436ZM3 715Q26 748 51
748T100 715L214 551Q211 538 199 526T172 513Q147 513 125 545L51 649L-22 545Q-44 513 -69 513Q-83 513 -93 522T-111 551L3 715Z" />
<glyph unicode="&#xef;" glyph-name="idieresis" horiz-adv-x="281" d="M3 421T18 436T56 452T93 438V151Q93 94 115 65T175 36T246 82T279 231Q281 237 294 237Q312 237 312 184Q312 107 270 52T163 -3Q82 -3 43 45T3 181V391Q3 421 18 436ZM-70 566T-70 586T-57
620T-23 634T11 620T25 586T11 553T-22 539T-56 552ZM79 566T79 586T92 620T126 634T160 620T174 586T160 553T126 539T93 552Z" />
<glyph unicode="&#xf0;" glyph-name="eth" horiz-adv-x="633" d="M83 719L56 718Q46 725 46 735T54 752T78 759Q209 759 331 675L413 757Q425 769 438 769T460 760T469 739L373 643Q462 568 515 460T569 232Q569 79 494 3T300 -73T115 -10T47 153Q47 276 120 342Q146
365 188 380T284 395Q397 395 463 319Q428 480 324 594L187 457Q174 444 162 444T141 453T132 474L287 630Q186 719 83 719ZM129 73T175 20T295 -33T419 21T469 158T422 293T281 346Q208 346 169 295T129 158Z" />
<glyph unicode="&#xf1;" glyph-name="ntilde" horiz-adv-x="528" d="M541 237Q559 237 559 184Q559 99 523 48T416 -3T309 45T271 181V298Q271 417 211 417Q158 417 124 363T90 182V11Q80 -3 55 -3T15 12T0 58V438Q10 452 38 452Q90 452 90 377Q132 452 223 452Q288
452 326 411T365 293V151Q365 94 383 65T436 36T499 80T526 231Q527 237 541 237ZM371 554T343 533T280 511T194 540T119 570Q64 570 64 499Q49 499 38 510T27 542Q27 581 55 605T121 630T208 601T281 571T319 587T334 632Q349 632 360 620T371 589Q371 554 343
533Z" />
<glyph unicode="&#xf2;" glyph-name="ograve" horiz-adv-x="472" d="M291 452T347 393T403 233T351 64T210 -3T64 57T5 225T59 392T202 452ZM203 413Q176 413 157 400T137 361Q137 297 187 239T306 161Q308 199 308 226Q308 330 286 371T203 413ZM100 226Q100
124 125 80T209 36Q249 36 270 56T300 123Q235 137 181 182T101 282Q100 265 100 226ZM102 794Q131 794 150 761L259 567Q255 552 243 541T217 529Q189 529 170 561L59 756Q62 770 75 782T102 794Z" />
<glyph unicode="&#xf3;" glyph-name="oacute" horiz-adv-x="472" d="M291 452T347 393T403 233T351 64T210 -3T64 57T5 225T59 392T202 452ZM203 413Q176 413 157 400T137 361Q137 297 187 239T306 161Q308 199 308 226Q308 330 286 371T203 413ZM100 226Q100
124 125 80T209 36Q249 36 270 56T300 123Q235 137 181 182T101 282Q100 265 100 226ZM194 529Q180 529 170 538T152 567L261 761Q280 794 309 794Q323 794 333 785T352 756L241 561Q222 529 194 529Z" />
<glyph unicode="&#xf4;" glyph-name="ocircumflex" horiz-adv-x="472" d="M291 452T347 393T403 233T351 64T210 -3T64 57T5 225T59 392T202 452ZM203 413Q176 413 157 400T137 361Q137 297 187 239T306 161Q308 199 308 226Q308 330 286 371T203 413ZM100 226Q100
124 125 80T209 36Q249 36 270 56T300 123Q235 137 181 182T101 282Q100 265 100 226ZM163 715Q186 748 211 748T260 715L374 551Q371 538 359 526T332 513Q307 513 285 545L211 649L138 545Q116 513 91 513Q77 513 67 522T49 551L163 715Z" />
<glyph unicode="&#xf5;" glyph-name="otilde" horiz-adv-x="472" d="M291 452T347 393T403 233T351 64T210 -3T64 57T5 225T59 392T202 452ZM203 413Q176 413 157 400T137 361Q137 297 187 239T306 161Q308 199 308 226Q308 330 286 371T203 413ZM100 226Q100
124 125 80T209 36Q249 36 270 56T300 123Q235 137 181 182T101 282Q100 265 100 226ZM372 554T344 533T281 511T195 540T120 570Q65 570 65 499Q50 499 39 510T28 542Q28 581 56 605T122 630T209 601T282 571T320 587T335 632Q350 632 361 620T372 589Q372 554
344 533Z" />
<glyph unicode="&#xf6;" glyph-name="odieresis" horiz-adv-x="472" d="M291 452T347 393T403 233T351 64T210 -3T64 57T5 225T59 392T202 452ZM203 413Q176 413 157 400T137 361Q137 297 187 239T306 161Q308 199 308 226Q308 330 286 371T203 413ZM100 226Q100
124 125 80T209 36Q249 36 270 56T300 123Q235 137 181 182T101 282Q100 265 100 226ZM342 566T342 586T355 620T389 634T423 620T437 586T423 553T389 539T356 552ZM491 566T491 586T504 620T538 634T572 620T586 586T572 553T539 539T505 552Z" />
<glyph unicode="&#xf7;" glyph-name="divide" horiz-adv-x="157" d="M-131 221Q-131 266 -70 266L244 267Q258 264 258 236Q258 191 197 191L-117 190Q-131 193 -131 221ZM40 -2T27 12T13 45T26 79T60 93T94 79T108 45T94 12T60 -2ZM13 384T13 404T26 438T60 452T94
438T108 404T94 371T60 357T27 370Z" />
<glyph unicode="&#xf8;" glyph-name="oslash" horiz-adv-x="492" d="M0 226Q0 334 56 393T199 452Q245 452 284 434L323 516Q331 532 337 537T354 543Q369 543 380 526L324 409Q398 348 398 233T344 58T204 -3Q166 -3 132 9L101 -57Q94 -73 88 -78T72 -83Q53 -83
44 -68L91 30Q0 90 0 226ZM137 413T116 372T95 231T117 85L264 393Q239 413 198 413Q137 413 116 372ZM260 36T281 79T303 209T292 342L151 48Q174 36 204 36Q260 36 281 79Z" />
<glyph unicode="&#xf9;" glyph-name="ugrave" horiz-adv-x="527" d="M269 421T286 436T327 452T365 438V151Q365 94 383 65T432 36Q463 36 492 72Q526 115 526 231Q527 237 541 237Q559 237 559 184Q559 99 523 48T420 -3Q315 -3 282 92Q243 -3 139 -3Q77 -3 39
34T1 142V391Q1 421 16 436T54 452T91 438V151Q91 32 151 32Q196 32 232 86T269 238V391Q269 421 286 436ZM77 790Q106 790 125 757L234 563Q230 548 218 537T192 525Q164 525 145 557L34 752Q37 766 50 778T77 790Z" />
<glyph unicode="&#xfa;" glyph-name="uacute" horiz-adv-x="527" d="M269 421T286 436T327 452T365 438V151Q365 94 383 65T432 36Q463 36 492 72Q526 115 526 231Q527 237 541 237Q559 237 559 184Q559 99 523 48T420 -3Q315 -3 282 92Q243 -3 139 -3Q77 -3 39
34T1 142V391Q1 421 16 436T54 452T91 438V151Q91 32 151 32Q196 32 232 86T269 238V391Q269 421 286 436ZM173 525Q159 525 149 534T131 563L240 757Q259 790 288 790Q302 790 312 781T331 752L220 557Q201 525 173 525Z" />
<glyph unicode="&#xfb;" glyph-name="ucircumflex" horiz-adv-x="527" d="M269 421T286 436T327 452T365 438V151Q365 94 383 65T432 36Q463 36 492 72Q526 115 526 231Q527 237 541 237Q559 237 559 184Q559 99 523 48T420 -3Q315 -3 282 92Q243 -3 139 -3Q77
-3 39 34T1 142V391Q1 421 16 436T54 452T91 438V151Q91 32 151 32Q196 32 232 86T269 238V391Q269 421 286 436ZM138 715Q161 748 186 748T235 715L349 551Q346 538 334 526T307 513Q282 513 260 545L186 649L113 545Q91 513 66 513Q52 513 42 522T24 551L138
715Z" />
<glyph unicode="&#xfc;" glyph-name="udieresis" horiz-adv-x="527" d="M269 421T286 436T327 452T365 438V151Q365 94 383 65T432 36Q463 36 492 72Q526 115 526 231Q527 237 541 237Q559 237 559 184Q559 99 523 48T420 -3Q315 -3 282 92Q243 -3 139 -3Q77 -3
39 34T1 142V391Q1 421 16 436T54 452T91 438V151Q91 32 151 32Q196 32 232 86T269 238V391Q269 421 286 436ZM68 566T68 586T81 620T115 634T149 620T163 586T149 553T116 539T82 552ZM217 566T217 586T230 620T264 634T298 620T312 586T298 553T264 539T231 552Z"
/>
<glyph unicode="&#xfd;" glyph-name="yacute" horiz-adv-x="487" d="M0 421T15 436T53 452T90 438V151Q90 32 150 32Q204 32 238 89T273 281V391Q273 421 288 436T326 452T363 438V-70Q375 -69 401 -69T427 -91L421 -106Q383 -106 363 -107V-157Q363 -260 317
-319T192 -379Q146 -379 111 -352T75 -265Q75 -189 129 -144T273 -81V75Q231 -3 138 -3Q74 -3 37 38T0 156V391Q0 421 15 436ZM126 -268Q126 -303 145 -321T191 -340T235 -324Q273 -290 273 -119Q126 -152 126 -268ZM185 525Q171 525 161 534T143 563L252 757Q271
790 300 790Q314 790 324 781T343 752L232 557Q213 525 185 525Z" />
<glyph unicode="&#xfe;" glyph-name="thorn" horiz-adv-x="469" d="M217 452Q304 452 360 393T416 226T362 58T222 -3Q157 -3 124 30L125 -304Q125 -379 75 -379Q55 -379 45 -365L41 743Q41 783 56 799T86 816Q109 816 121 806L122 410Q164 452 217 452ZM321 330T299
371T222 413T145 382T123 277V180Q126 104 150 70T226 36T299 79T321 226Z" />
<glyph unicode="&#xff;" glyph-name="ydieresis" horiz-adv-x="487" d="M0 421T15 436T53 452T90 438V151Q90 32 150 32Q204 32 238 89T273 281V391Q273 421 288 436T326 452T363 438V-70Q375 -69 401 -69T427 -91L421 -106Q383 -106 363 -107V-157Q363 -260 317
-319T192 -379Q146 -379 111 -352T75 -265Q75 -189 129 -144T273 -81V75Q231 -3 138 -3Q74 -3 37 38T0 156V391Q0 421 15 436ZM126 -268Q126 -303 145 -321T191 -340T235 -324Q273 -290 273 -119Q126 -152 126 -268ZM69 566T69 586T82 620T116 634T150 620T164
586T150 553T116 539T83 552ZM218 566T218 586T231 620T265 634T299 620T313 586T299 553T266 539T232 552Z" />
<glyph unicode="&#x2013;" glyph-name="endash" horiz-adv-x="543" d="M46 259Q46 305 107 305H491Q505 302 505 274Q505 228 444 228H60Q46 231 46 259Z" />
<glyph unicode="&#x2014;" glyph-name="emdash" horiz-adv-x="633" d="M22 259Q22 305 83 305H577Q591 302 591 274Q591 229 530 228H36Q22 231 22 259Z" />
<glyph unicode="&#x2018;" glyph-name="quoteleft" horiz-adv-x="178" d="M123 877T132 872T142 857T135 842Q107 842 91 824T75 780T77 748Q92 766 114 766T149 752T163 719T149 685T106 671T56 697T35 769T57 846T110 877Q123 877 132 872Z" />
<glyph unicode="&#x2019;" glyph-name="quoteright" horiz-adv-x="198" d="M75 671T66 676T56 691T63 706Q91 706 107 724T123 765T120 800Q107 782 85 782T49 796T35 829T49 863T83 877Q119 877 141 852T163 780T141 702T88 671Q75 671 66 676Z" />
<glyph unicode="&#x201a;" glyph-name="quotesinglbase" horiz-adv-x="181" d="M75 -113T66 -108T56 -93T63 -78Q91 -78 107 -60T123 -19T120 16Q107 -2 85 -2T49 12T35 45T49 79T83 93Q119 93 141 68T163 -4T141 -82T88 -113Q75 -113 66 -108Z" />
<glyph unicode="&#x201c;" glyph-name="quotedblleft" horiz-adv-x="444" d="M123 877T132 872T142 857T135 842Q107 842 91 824T75 780T77 748Q92 766 114 766T149 752T163 719T149 685T115 671Q79 671 57 696T35 768T57 846T110 877Q123 877 132 872ZM283 877T292
872T302 857T295 842Q267 842 251 824T235 780T237 748Q252 766 274 766T309 752T323 719T309 685T275 671Q239 671 217 696T195 768T217 846T270 877Q283 877 292 872Z" />
<glyph unicode="&#x201d;" glyph-name="quotedblright" horiz-adv-x="337" d="M235 671T226 676T216 691T223 706Q251 706 267 724T283 765T280 800Q267 782 245 782T209 796T195 829T209 863T246 877Q280 875 301 850T323 779T301 702T248 671Q235 671 226 676ZM75
671T66 676T56 691T63 706Q91 706 107 724T123 765T120 800Q107 782 85 782T49 796T35 829T49 863T83 877Q119 877 141 852T163 780T141 702T88 671Q75 671 66 676Z" />
<glyph unicode="&#x201e;" glyph-name="quotedblbase" horiz-adv-x="363" d="M75 -113T66 -108T56 -93T63 -78Q91 -78 107 -60T123 -19T120 16Q107 -2 85 -2T49 12T35 45T49 79T86 93Q120 91 141 66T163 -5T141 -82T88 -113Q75 -113 66 -108ZM248 -113T239 -108T229
-92T236 -78Q264 -78 280 -60T296 -19T293 16Q280 -2 258 -2T222 12T208 45T222 79T259 93Q293 91 314 66T336 -5T314 -82T261 -113Q248 -113 239 -108Z" />
<glyph unicode="&#x2022;" glyph-name="bullet" horiz-adv-x="332" d="M48 256T48 306T83 392T169 428T255 392T291 306T255 221T169 185T84 220Z" />
<glyph unicode="&#x2039;" glyph-name="guilsinglleft" horiz-adv-x="833" d="M374 59Q406 33 406 19T397 -8T368 -30L130 167Q96 195 96 215T130 265L368 466Q383 459 394 445T405 417T374 377L185 216L374 59Z" />
<glyph unicode="&#x203a;" glyph-name="guilsinglright" horiz-adv-x="433" d="M128 -30Q90 -11 90 19Q90 33 122 59L311 216L122 377Q91 403 91 417T100 443T128 466L366 265Q399 237 399 216T366 167L128 -30Z" />
</font>
</defs>
</svg>
